<?xml version="1.0" standalone="no"?><!DOCTYPE svg PUBLIC "-//W3C//DTD SVG 1.1//EN" "http://www.w3.org/Graphics/SVG/1.1/DTD/svg11.dtd"><svg t="1659317763470" class="icon" viewBox="0 0 1024 1024" version="1.1" xmlns="http://www.w3.org/2000/svg" p-id="2671" xmlns:xlink="http://www.w3.org/1999/xlink" width="200" height="200"><defs><style type="text/css">@font-face { font-family: feedback-iconfont; src: url("//at.alicdn.com/t/font_1031158_u69w8yhxdu.woff2?t=1630033759944") format("woff2"), url("//at.alicdn.com/t/font_1031158_u69w8yhxdu.woff?t=1630033759944") format("woff"), url("//at.alicdn.com/t/font_1031158_u69w8yhxdu.ttf?t=1630033759944") format("truetype"); }
</style></defs><path d="M703.962507 1023.90002 639.975005 1023.90002 320.037493 1023.90002l-63.987502 0L0.09998 1023.90002 0.09998 319.937512l255.95001 0L256.04999 63.987502l191.962507 0L448.012498 0l63.987502 0 0 64.087483 192.062488 0 0 383.925015L959.912517 448.012498l0 575.987502L703.962507 1024 703.962507 1023.90002 703.962507 1023.90002zM256.04999 384.024995 64.087483 384.024995l0 575.787541 63.987502 0L128.074985 831.837532l63.987502 0 0 127.875024 64.087483 0L256.04999 384.024995 256.04999 384.024995 256.04999 384.024995zM639.975005 447.912517 639.975005 127.975005 320.037493 127.975005 320.037493 319.937512l0 639.775044 95.881273 0L415.918766 831.837532l127.975005 0 0 127.875024 95.981254 0L639.875024 447.912517 639.975005 447.912517 639.975005 447.912517zM895.925015 511.90002 703.962507 511.90002l0 447.912517 63.987502 0L767.95001 831.837532l63.987502 0 0 127.875024 63.987502 0L895.925015 511.90002 895.925015 511.90002 895.925015 511.90002zM767.95001 703.962507l63.987502 0L831.937512 767.850029l-63.987502 0L767.95001 703.962507 767.95001 703.962507 767.95001 703.962507zM767.95001 575.987502l63.987502 0 0 63.987502-63.987502 0L767.95001 575.987502 767.95001 575.987502 767.95001 575.987502zM415.918766 703.962507l127.975005 0L543.893771 767.850029l-127.975005 0L415.918766 703.962507 415.918766 703.962507 415.918766 703.962507zM415.918766 575.987502l127.975005 0 0 63.987502-127.975005 0L415.918766 575.987502 415.918766 575.987502 415.918766 575.987502zM415.918766 447.912517l127.975005 0 0 63.987502-127.975005 0L415.918766 447.912517 415.918766 447.912517 415.918766 447.912517zM415.918766 319.937512l127.975005 0 0 63.987502-127.975005 0L415.918766 319.937512 415.918766 319.937512 415.918766 319.937512zM415.918766 191.962507l127.975005 0 0 63.987502-127.975005 0L415.918766 191.962507 415.918766 191.962507 415.918766 191.962507zM127.975005 703.962507l63.987502 0L191.962507 767.850029l-63.987502 0L127.975005 703.962507 127.975005 703.962507 127.975005 703.962507zM127.975005 575.987502l63.987502 0 0 63.987502-63.987502 0L127.975005 575.987502 127.975005 575.987502 127.975005 575.987502zM127.975005 447.912517l63.987502 0 0 63.987502-63.987502 0L127.975005 447.912517 127.975005 447.912517 127.975005 447.912517zM127.975005 447.912517" p-id="2672"></path></svg>