<svg  xmlns="http://www.w3.org/2000/svg" viewBox="0 0 1024 1024"><path  d="M617.216 170.667c114.24 0 206.87 92.608 206.87 206.869 0 72.533-37.334 136.32-93.803 173.27L899.029 747.69a64 64 0 0 1-48.597 105.642l-101.888.022c11.221-19.414 14.293-42.496 8.747-64l93.141-.022L634.24 537.11l60.992-39.872a142.87 142.87 0 0 0-75.584-262.549 251.264 251.264 0 0 0-55.424-57.173 206.976 206.976 0 0 1 52.992-6.848zm-61.163 412.757l140.8 164.267a64 64 0 0 1-48.64 105.642H181.824a64 64 0 0 1-48.597-105.642l140.8-164.267a248.384 248.384 0 0 0 141.013 43.648c52.33 0 100.907-16.107 141.013-43.648zM415.04 170.667c114.24 0 206.87 92.608 206.87 206.869 0 114.24-92.63 206.87-206.87 206.87-114.261 0-206.87-92.63-206.87-206.87 0-114.261 92.609-206.87 206.87-206.87z"/></svg>