<?xml version="1.0" standalone="no"?><!DOCTYPE svg PUBLIC "-//W3C//DTD SVG 1.1//EN" "http://www.w3.org/Graphics/SVG/1.1/DTD/svg11.dtd"><svg t="1659317744989" class="icon" viewBox="0 0 1024 1024" version="1.1" xmlns="http://www.w3.org/2000/svg" p-id="2429" xmlns:xlink="http://www.w3.org/1999/xlink" width="200" height="200"><defs><style type="text/css">@font-face { font-family: feedback-iconfont; src: url("//at.alicdn.com/t/font_1031158_u69w8yhxdu.woff2?t=1630033759944") format("woff2"), url("//at.alicdn.com/t/font_1031158_u69w8yhxdu.woff?t=1630033759944") format("woff"), url("//at.alicdn.com/t/font_1031158_u69w8yhxdu.ttf?t=1630033759944") format("truetype"); }
</style></defs><path d="M533.2 507.1c65.3-35.9 109.7-105.3 109.7-185 0-116.3-94.6-210.9-210.9-210.9-116.3 0-210.9 94.6-210.9 210.9 0 79.6 44.4 149.1 109.7 185C159.8 552 33.3 708 33.3 892.9v19.8h797.6v-19.8C830.8 708 704.3 552 533.2 507.1z m-67.6 255.8l-36.9 29.2-36.7-29 38.6-164.7 35 164.5zM260.7 322.2c0-94.5 76.9-171.3 171.3-171.3s171.3 76.9 171.3 171.3c0 91.2-71.6 165.9-161.5 171l-10-0.1-5.9 0.3c-91.6-3.2-165.2-78.8-165.2-171.2z m-187.4 551C83.1 693.2 226 548 405.1 534.7l-54.2 230.9c-1.6 6.4-0.1 13 3.9 18.1l7.1 8.1h2.7l64.1 50.7 67.3-53.2c2.4-1.3 4.6-3.1 6.4-5.3l6.2-8.5-51.1-240.8c179.7 12.7 323.3 158.1 333.1 338.6H73.3z" fill="#999999" p-id="2430"></path><path d="M775 512.8c45.4-29.4 74.8-80.5 74.8-137.1 0-89.9-73.2-163.1-163.1-163.1l-22.7 0.4 2.9 39.5 19.8-0.5c68.1 0 123.6 55.4 123.6 123.6 0 58.7-41.7 109.7-99.2 121.2l-19.4 3.9 7.7 38.8 4.6-0.9-0.1 0.5 19.6 2.7c123.3 17.1 217.8 119.6 227 242.3h-81.7v39.5h122v-19.8c-0.1-135-90.1-252.8-215.8-291z" fill="#999999" p-id="2431"></path></svg>