<?xml version="1.0" standalone="no"?><!DOCTYPE svg PUBLIC "-//W3C//DTD SVG 1.1//EN" "http://www.w3.org/Graphics/SVG/1.1/DTD/svg11.dtd"><svg t="1652845936499" class="icon" viewBox="0 0 1024 1024" version="1.1" xmlns="http://www.w3.org/2000/svg" p-id="2848" xmlns:xlink="http://www.w3.org/1999/xlink" width="200" height="200"><defs><style type="text/css">@font-face { font-family: feedback-iconfont; src: url("//at.alicdn.com/t/font_1031158_u69w8yhxdu.woff2?t=1630033759944") format("woff2"), url("//at.alicdn.com/t/font_1031158_u69w8yhxdu.woff?t=1630033759944") format("woff"), url("//at.alicdn.com/t/font_1031158_u69w8yhxdu.ttf?t=1630033759944") format("truetype"); }
</style></defs><path d="M37.776 818.188l550.667 98.333V51.188L37.776 149.521v668.666z m137.667-511.334h78.667l39.334 74.296 39.334-74.296h78.667l-78.667 148.593 98.333 185.74h-78.667l-59-111.444-59 111.444h-78.667l98.333-185.74-78.667-148.593z m511.333 157.333h-98.331v39.334h98.331v-39.334z m0 236.001h-98.331v39.334h98.331v-39.334z m0-118h-98.331v39.334h98.331v-39.334z m0-236h-98.331v39.334h98.331v-39.334z m0-118h-98.331v39.334h98.331v-39.334z m59 393.334h137.666v-39.334H745.776v39.334z m0-118.001h137.666v-39.334H745.776v39.334z m0 236h137.666v-39.334H745.776v39.334z m137.667-511.333H745.777v39.334h137.666v-39.334zM745.776 385.521h137.666v-39.334H745.776v39.334z m-157.33-275.334v39.334h353.997v668.666H588.446v39.334h394.29V110.187h-394.29z" fill="#2AA515" p-id="2849"></path></svg>