<?xml version="1.0" encoding="utf-8"?>
<!-- Generator: Adobe Illustrator 19.0.0, SVG Export Plug-In . SVG Version: 6.00 Build 0)  -->
<svg version="1.1" id="图层_1" xmlns="http://www.w3.org/2000/svg" xmlns:xlink="http://www.w3.org/1999/xlink" x="0px" y="0px"
	 width="220px" height="50px" viewBox="-187 395.9 220 50" style="enable-background:new -187 395.9 220 50;" xml:space="preserve">
<style type="text/css">
	.st0{fill-rule:evenodd;clip-rule:evenodd;fill:#EF8200;}
	.st1{fill-rule:evenodd;clip-rule:evenodd;fill:#0080CB;}
	.st2{fill:#FFFFFF;}
</style>
<g id="XMLID_2_">
	<path id="XMLID_94_" class="st0" d="M-186.9,444.4c0-0.2,0-0.3,0-0.4c0.5-3,1-6,1.5-9c0.1-0.4,0.2-0.5,0.6-0.5c3.2,0,6-0.8,8.2-3.2
		c0.9-1,1.4-2.2,1.6-3.5c0.8-4.8,1.7-9.6,2.5-14.5c0.7-4.4,1.4-8.8,2.1-13.1c0.2-1.2,0.4-2.5,0.6-3.8c0.5,0.4,1,0.7,1.4,1.1
		c2.7,2,5.4,4.1,8.1,6.1c0.3,0.2,0.4,0.5,0.3,0.8c-0.5,2.9-1,5.7-1.5,8.6c-0.9,5.1-1.7,10.3-2.6,15.4c-1.2,7-5.1,11.9-11.7,14.6
		c-3.5,1.4-7.2,1.8-10.9,1.5C-186.6,444.4-186.7,444.4-186.9,444.4z"/>
	<path id="XMLID_93_" class="st0" d="M-138,410.8c-0.3,2-0.6,3.8-0.9,5.7c-0.2,1.3-0.4,2.6-0.6,3.9c-0.1,0.4-0.2,0.5-0.6,0.5
		c-2.5-0.1-4.7,0.7-6.4,2.7c-2.4,2.9-1.9,7,1.2,9.2c1,0.8,2.2,1.2,3.5,1.5c-0.1,0.7-0.2,1.4-0.3,2.1c-0.4,2.5-0.8,5.1-1.2,7.6
		c0,0.3-0.1,0.4-0.4,0.4c-6.8-1.2-11.9-4.7-14.4-11.3c-2.4-6.4-0.9-12.1,3.8-16.9c3.2-3.3,7.2-5,11.7-5.4c1.4-0.1,2.7,0,4.1,0
		C-138.4,410.8-138.2,410.8-138,410.8z"/>
	<polygon id="XMLID_91_" class="st1" points="-132.6,410.6 -111.8,410.6 -107.7,418.7 -123.3,418.7 -124.1,423.4 -115.8,423.4 
		-111.5,430.9 -125.2,430.9 -126.2,436.1 -115.8,436.1 -110.6,444.4 -138,444.4 	"/>
	<polygon id="XMLID_89_" class="st1" points="-106.1,410.6 -95,410.6 -91.2,419.4 -86,410.6 -73.7,410.6 -85.6,427 -75.9,444.4 
		-87.7,444.6 -92.4,435.2 -97.6,444.4 -110.3,444.4 -97.8,426.7 	"/>
	<g id="XMLID_10_">
		<path id="XMLID_86_" class="st2" d="M-61.4,443.9l-1.9-6.9h1l1.1,4.5c0.1,0.5,0.2,0.9,0.3,1.4c0.2-0.7,0.3-1.2,0.3-1.3l1.4-4.7
			h1.2l1,3.5c0.3,0.9,0.4,1.7,0.6,2.5c0.1-0.4,0.2-0.9,0.4-1.5l1.1-4.5h1l-2,6.9h-0.9l-1.5-5.3c-0.1-0.4-0.2-0.7-0.2-0.8
			c-0.1,0.3-0.1,0.6-0.2,0.8l-1.5,5.3H-61.4z"/>
		<path id="XMLID_68_" class="st2" d="M-49.9,442.2l0.9,0.1c-0.1,0.5-0.4,0.9-0.8,1.2c-0.4,0.3-0.9,0.4-1.5,0.4
			c-0.8,0-1.4-0.2-1.8-0.7c-0.5-0.5-0.7-1.1-0.7-1.9c0-0.8,0.2-1.5,0.7-2c0.5-0.5,1-0.7,1.8-0.7c0.7,0,1.3,0.2,1.7,0.7
			c0.4,0.5,0.7,1.1,0.7,1.9c0,0,0,0.1,0,0.2h-3.9c0,0.6,0.2,1,0.5,1.3c0.3,0.3,0.7,0.4,1.1,0.4c0.3,0,0.6-0.1,0.8-0.2
			C-50.2,442.9-50,442.6-49.9,442.2z M-52.8,440.9h2.9c0-0.4-0.2-0.7-0.3-1c-0.3-0.3-0.6-0.5-1.1-0.5c-0.4,0-0.8,0.1-1,0.4
			C-52.6,440.1-52.7,440.4-52.8,440.9z"/>
		<path id="XMLID_65_" class="st2" d="M-43.1,443.1l0.1,0.8c-0.2,0-0.5,0.1-0.7,0.1c-0.3,0-0.6,0-0.7-0.1c-0.2-0.1-0.3-0.2-0.4-0.4
			c-0.1-0.2-0.1-0.5-0.1-1v-2.9h-0.7v-0.7h0.7v-1.2l0.9-0.5v1.8h0.9v0.7H-44v2.9c0,0.2,0,0.4,0,0.5c0,0.1,0.1,0.1,0.2,0.2
			c0.1,0,0.2,0.1,0.3,0.1C-43.4,443.1-43.2,443.1-43.1,443.1z"/>
		<path id="XMLID_51_" class="st2" d="M-38.8,443.2c-0.3,0.3-0.6,0.5-0.9,0.6c-0.3,0.1-0.6,0.2-1,0.2c-0.6,0-1-0.1-1.3-0.4
			c-0.3-0.3-0.5-0.6-0.5-1c0-0.2,0.1-0.5,0.2-0.7c0.1-0.2,0.3-0.4,0.5-0.5c0.2-0.1,0.4-0.2,0.6-0.3c0.2,0,0.4-0.1,0.8-0.1
			c0.7-0.1,1.2-0.2,1.6-0.3c0-0.1,0-0.2,0-0.2c0-0.3-0.1-0.6-0.3-0.7c-0.2-0.2-0.6-0.3-1-0.3c-0.4,0-0.7,0.1-0.9,0.2
			c-0.2,0.1-0.3,0.4-0.4,0.7l-0.9-0.1c0.1-0.4,0.2-0.6,0.4-0.9c0.2-0.2,0.4-0.4,0.8-0.5c0.3-0.1,0.7-0.2,1.2-0.2
			c0.4,0,0.8,0.1,1.1,0.2c0.3,0.1,0.5,0.2,0.6,0.4c0.1,0.2,0.2,0.3,0.3,0.6c0,0.1,0,0.4,0,0.8v1.1c0,0.8,0,1.3,0.1,1.5
			c0,0.2,0.1,0.4,0.2,0.6h-0.9C-38.7,443.7-38.8,443.5-38.8,443.2z M-38.9,441.3c-0.3,0.1-0.8,0.2-1.4,0.3c-0.4,0.1-0.6,0.1-0.8,0.2
			c-0.2,0.1-0.3,0.2-0.3,0.3c-0.1,0.1-0.1,0.3-0.1,0.4c0,0.2,0.1,0.4,0.3,0.6c0.2,0.2,0.4,0.2,0.8,0.2c0.3,0,0.6-0.1,0.9-0.2
			c0.3-0.1,0.5-0.3,0.6-0.6c0.1-0.2,0.1-0.5,0.1-0.9V441.3z"/>
		<path id="XMLID_40_" class="st2" d="M-36.6,443.9v-6.9h0.9v4l2.1-2h1.1l-2,1.9l2.2,3.2h-1.1l-1.7-2.6l-0.6,0.6v2H-36.6z"/>
		<path id="XMLID_37_" class="st2" d="M-28,442.2l0.9,0.1c-0.1,0.5-0.4,0.9-0.8,1.2c-0.4,0.3-0.9,0.4-1.5,0.4
			c-0.8,0-1.4-0.2-1.8-0.7c-0.4-0.5-0.7-1.1-0.7-1.9c0-0.8,0.2-1.5,0.7-2c0.5-0.5,1-0.7,1.8-0.7c0.7,0,1.3,0.2,1.7,0.7
			s0.7,1.1,0.7,1.9c0,0,0,0.1,0,0.2h-3.9c0,0.6,0.2,1,0.5,1.3c0.3,0.3,0.7,0.4,1.1,0.4c0.3,0,0.6-0.1,0.8-0.2
			C-28.3,442.9-28.1,442.6-28,442.2z M-30.9,440.9h2.9c0-0.4-0.2-0.7-0.3-1c-0.3-0.3-0.6-0.5-1.1-0.5c-0.4,0-0.8,0.1-1,0.4
			C-30.7,440.1-30.8,440.4-30.9,440.9z"/>
		<path id="XMLID_34_" class="st2" d="M-23.1,437.9v-1h0.9v1H-23.1z M-23.1,443.9v-5h0.9v5H-23.1z"/>
		<path id="XMLID_32_" class="st2" d="M-18.9,443.1l0.1,0.8c-0.2,0-0.5,0.1-0.7,0.1c-0.3,0-0.6,0-0.7-0.1c-0.2-0.1-0.3-0.2-0.4-0.4
			c-0.1-0.2-0.1-0.5-0.1-1v-2.9h-0.7v-0.7h0.7v-1.2l0.9-0.5v1.8h0.9v0.7h-0.9v2.9c0,0.2,0,0.4,0,0.5c0,0.1,0.1,0.1,0.2,0.2
			c0.1,0,0.2,0.1,0.3,0.1C-19.2,443.1-19.1,443.1-18.9,443.1z"/>
		<path id="XMLID_29_" class="st2" d="M-15.3,445.8v-7h0.8v0.7c0.2-0.3,0.4-0.4,0.6-0.6c0.2-0.1,0.5-0.2,0.9-0.2
			c0.4,0,0.8,0.1,1.2,0.3c0.3,0.2,0.6,0.5,0.8,0.9c0.2,0.4,0.3,0.8,0.3,1.3c0,0.5-0.1,1-0.3,1.4c-0.2,0.4-0.5,0.7-0.8,0.9
			c-0.4,0.2-0.8,0.3-1.2,0.3c-0.3,0-0.6-0.1-0.8-0.2c-0.2-0.1-0.4-0.3-0.6-0.5v2.4H-15.3z M-14.5,441.4c0,0.6,0.1,1.1,0.4,1.4
			c0.3,0.3,0.6,0.5,1,0.5c0.4,0,0.7-0.2,1-0.5c0.3-0.3,0.4-0.8,0.4-1.5c0-0.6-0.1-1.1-0.4-1.4c-0.3-0.3-0.6-0.5-1-0.5
			c-0.4,0-0.7,0.2-1,0.5C-14.3,440.2-14.5,440.7-14.5,441.4z"/>
		<path id="XMLID_25_" class="st2" d="M-6.1,442.2l0.9,0.1c-0.1,0.5-0.4,0.9-0.8,1.2c-0.4,0.3-0.9,0.4-1.5,0.4
			c-0.8,0-1.4-0.2-1.8-0.7c-0.5-0.5-0.7-1.1-0.7-1.9c0-0.8,0.2-1.5,0.7-2c0.5-0.5,1-0.7,1.8-0.7c0.7,0,1.3,0.2,1.7,0.7
			c0.4,0.5,0.7,1.1,0.7,1.9c0,0,0,0.1,0,0.2H-9c0,0.6,0.2,1,0.5,1.3c0.3,0.3,0.7,0.4,1.1,0.4c0.3,0,0.6-0.1,0.8-0.2
			C-6.4,442.9-6.2,442.6-6.1,442.2z M-9,440.9H-6c0-0.4-0.2-0.7-0.3-1c-0.3-0.3-0.6-0.5-1.1-0.5c-0.4,0-0.8,0.1-1,0.4
			C-8.8,440.1-8.9,440.4-9,440.9z"/>
		<path id="XMLID_23_" class="st2" d="M-4,443.9v-5h0.8v0.8c0.2-0.4,0.4-0.6,0.6-0.7c0.2-0.1,0.4-0.2,0.6-0.2c0.3,0,0.6,0.1,0.9,0.3
			l-0.3,0.8c-0.2-0.1-0.4-0.2-0.7-0.2c-0.2,0-0.4,0.1-0.5,0.2c-0.2,0.1-0.3,0.3-0.3,0.5c-0.1,0.3-0.1,0.6-0.1,1v2.6H-4z"/>
		<path id="XMLID_21_" class="st2" d="M-1,442.3l0.9-0.1c0,0.3,0.2,0.6,0.4,0.8c0.2,0.2,0.5,0.3,0.9,0.3c0.4,0,0.7-0.1,0.9-0.2
			c0.2-0.2,0.3-0.3,0.3-0.6c0-0.2-0.1-0.3-0.3-0.5c-0.1-0.1-0.4-0.2-0.9-0.3c-0.7-0.2-1.1-0.3-1.4-0.4c-0.3-0.1-0.4-0.3-0.6-0.5
			c-0.1-0.2-0.2-0.4-0.2-0.7c0-0.2,0.1-0.4,0.2-0.6c0.1-0.2,0.3-0.3,0.4-0.5c0.1-0.1,0.3-0.2,0.6-0.2c0.2-0.1,0.5-0.1,0.8-0.1
			c0.4,0,0.8,0.1,1.1,0.2c0.3,0.1,0.5,0.3,0.7,0.5c0.1,0.2,0.2,0.5,0.3,0.8l-0.9,0.1c0-0.3-0.2-0.5-0.3-0.6
			c-0.2-0.1-0.5-0.2-0.8-0.2c-0.4,0-0.7,0.1-0.9,0.2c-0.2,0.1-0.3,0.3-0.3,0.5c0,0.1,0,0.2,0.1,0.3c0.1,0.1,0.2,0.2,0.3,0.2
			c0.1,0,0.3,0.1,0.8,0.2c0.6,0.2,1.1,0.3,1.3,0.4c0.2,0.1,0.4,0.3,0.6,0.4c0.1,0.2,0.2,0.4,0.2,0.7c0,0.3-0.1,0.6-0.3,0.8
			c-0.2,0.3-0.4,0.4-0.7,0.6C2,443.9,1.6,444,1.2,444c-0.7,0-1.2-0.1-1.6-0.4C-0.7,443.3-0.9,442.9-1,442.3z"/>
		<path id="XMLID_18_" class="st2" d="M4.1,441.3c0-0.9,0.3-1.6,0.8-2.1c0.4-0.4,1-0.6,1.6-0.6c0.7,0,1.3,0.2,1.8,0.7
			c0.5,0.5,0.7,1.1,0.7,1.9c0,0.6-0.1,1.2-0.3,1.5c-0.2,0.4-0.5,0.7-0.9,0.9C7.4,443.9,7,444,6.5,444c-0.7,0-1.3-0.2-1.8-0.7
			C4.3,442.8,4.1,442.2,4.1,441.3z M5,441.3c0,0.6,0.1,1.1,0.4,1.4c0.3,0.3,0.7,0.5,1.1,0.5c0.4,0,0.8-0.2,1.1-0.5
			c0.3-0.3,0.4-0.8,0.4-1.5c0-0.6-0.1-1.1-0.4-1.4c-0.3-0.3-0.7-0.5-1.1-0.5c-0.4,0-0.8,0.2-1.1,0.5C5.1,440.2,5,440.7,5,441.3z"/>
		<path id="XMLID_16_" class="st2" d="M10,443.9v-5h0.8v0.7c0.4-0.6,0.9-0.8,1.7-0.8c0.3,0,0.6,0.1,0.9,0.2c0.3,0.1,0.5,0.3,0.6,0.4
			c0.1,0.2,0.2,0.4,0.3,0.6c0,0.2,0,0.4,0,0.8v3.1h-0.9v-3.1c0-0.3,0-0.6-0.1-0.8c-0.1-0.2-0.2-0.3-0.4-0.4
			c-0.2-0.1-0.4-0.2-0.6-0.2c-0.4,0-0.7,0.1-1,0.3c-0.3,0.2-0.4,0.7-0.4,1.3v2.7H10z"/>
		<path id="XMLID_14_" class="st2" d="M19,443.2c-0.3,0.3-0.6,0.5-0.9,0.6c-0.3,0.1-0.6,0.2-1,0.2c-0.6,0-1-0.1-1.3-0.4
			c-0.3-0.3-0.5-0.6-0.5-1c0-0.2,0.1-0.5,0.2-0.7c0.1-0.2,0.3-0.4,0.5-0.5c0.2-0.1,0.4-0.2,0.6-0.3c0.2,0,0.4-0.1,0.8-0.1
			c0.7-0.1,1.2-0.2,1.6-0.3c0-0.1,0-0.2,0-0.2c0-0.3-0.1-0.6-0.3-0.7c-0.2-0.2-0.6-0.3-1-0.3c-0.4,0-0.7,0.1-0.9,0.2
			c-0.2,0.1-0.3,0.4-0.4,0.7l-0.9-0.1c0.1-0.4,0.2-0.6,0.4-0.9c0.2-0.2,0.4-0.4,0.8-0.5c0.3-0.1,0.7-0.2,1.2-0.2
			c0.4,0,0.8,0.1,1.1,0.2c0.3,0.1,0.5,0.2,0.6,0.4c0.1,0.2,0.2,0.3,0.3,0.6c0,0.1,0,0.4,0,0.8v1.1c0,0.8,0,1.3,0.1,1.5
			c0,0.2,0.1,0.4,0.2,0.6h-0.9C19.1,443.7,19.1,443.5,19,443.2z M19,441.3c-0.3,0.1-0.8,0.2-1.5,0.3c-0.4,0.1-0.6,0.1-0.8,0.2
			c-0.2,0.1-0.3,0.2-0.4,0.3c-0.1,0.1-0.1,0.3-0.1,0.4c0,0.2,0.1,0.4,0.3,0.6c0.2,0.2,0.4,0.2,0.8,0.2c0.3,0,0.6-0.1,0.9-0.2
			c0.3-0.1,0.5-0.3,0.6-0.6c0.1-0.2,0.1-0.5,0.1-0.9V441.3z"/>
		<path id="XMLID_13_" class="st2" d="M21.2,443.9v-6.9h0.9v6.9H21.2z"/>
		<path id="XMLID_12_" class="st2" d="M23.5,443.9v-6.9h0.9v6.9H23.5z"/>
		<path id="XMLID_11_" class="st2" d="M25.7,445.8l-0.1-0.8c0.2,0,0.4,0.1,0.5,0.1c0.2,0,0.4,0,0.5-0.1c0.1-0.1,0.2-0.2,0.3-0.3
			c0.1-0.1,0.1-0.3,0.3-0.6c0,0,0-0.1,0.1-0.2l-2-5h1l1.1,2.9c0.1,0.4,0.3,0.8,0.4,1.2c0.1-0.4,0.2-0.8,0.4-1.1l1.1-2.9H30l-2,5.1
			c-0.2,0.6-0.4,0.9-0.5,1.1c-0.2,0.3-0.3,0.5-0.5,0.6c-0.2,0.1-0.4,0.2-0.7,0.2C26.1,445.9,25.9,445.9,25.7,445.8z"/>
	</g>
	<g id="XMLID_5_">
		<path id="XMLID_9_" class="st2" d="M-56.9,411.6c-0.5,1.4-1.2,2.9-2,4.4v14.7h-2.5v-10.7c-0.4,0.6-0.8,1-1.2,1.5
			c-0.2-0.6-0.9-2-1.4-2.6c1.9-1.9,3.7-4.9,4.7-8L-56.9,411.6z M-43.9,427.5v2.4h-14.1v-2.4h5.9V425h-4.7v-2.4h4.7v-1.9h2.6v1.9h4.8
			v2.4h-4.8v2.6H-43.9z M-52.2,415.5h-4.3v-2.4h4.3v-2.4h2.6v2.4h4.4v2.4h-4.4v2.2h5.3v2.4h-13.1v-2.4h5.2V415.5z"/>
		<path id="XMLID_8_" class="st2" d="M-20.6,418.2c-0.9,2.8-2.1,5.2-3.7,7.3c0.6,1.5,1.2,2.2,1.6,2.2c0.4,0,0.8-0.1,1-2.5
			c0.7,0.4,1.7,0.9,2.4,1.2c-0.5,3.8-1.9,4.4-2.9,4.3c-1.5-0.2-3.1-1.3-4-3.1c-1.1,1.1-2.3,2.1-3.6,2.9c-0.4-0.6-1.3-1.6-1.8-2.1
			c1.6-0.9,3.1-2.1,4.3-3.4c-0.7-2.4-1.2-5.4-1.5-8.6h-6.2v2.3h5.3c0,0,0,0.7,0,1c-0.1,4.5-0.2,6.4-0.7,7c-0.4,0.6-0.8,0.7-1.5,0.9
			c-0.6,0.1-1.5,0.1-2.4,0.1c0-0.7-0.3-1.7-0.7-2.4c0.8,0.1,1.5,0.1,1.8,0.1c0.3,0,0.5,0,0.6-0.3c0.2-0.3,0.3-1.3,0.4-4h-2.8
			c-0.1,3.1-0.5,7.3-2.3,9.8c-0.4-0.5-1.6-1.4-2.1-1.7c1.6-2.6,1.8-6.3,1.8-9v-6.2h8.7c0-1-0.1-2.1-0.1-3.1h2.7c0,1.1,0,2.1,0,3.1
			l2.8,0c-0.7-0.7-1.3-1.3-2-1.9l1.8-1.4c0.8,0.7,1.6,1.5,2.4,2.3l-1,1l2.7,0v2.5h-6.6c0.2,2.1,0.5,4.1,0.9,5.8c0.8-1.4,1.5-3,2-4.7
			L-20.6,418.2z"/>
		<path id="XMLID_7_" class="st2" d="M4.4,411.6v19H1.7v-1.1h-12.6v1.1h-2.6v-19H4.4z M1.7,427.2v-13.3h-12.6v13.3H1.7z M1,423.9
			v2.1h-11v-2.1h4.3v-2.5h-3.5v-2.1h3.5v-2h-4v-2.2H0.6v2.2h-4.1v2h3.6v2.1H-1c0.6,0.6,1.3,1.4,1.6,1.9l-1.1,0.6H1z M-3.4,423.9h2.1
			c-0.4-0.6-1-1.3-1.4-1.9l1.3-0.7h-2V423.9z"/>
		<path id="XMLID_6_" class="st2" d="M18,412.5c-0.6,1.8-1.3,3.9-2,5.6c1.4,1.7,1.7,3.2,1.7,4.4c0,1.4-0.3,2.3-1.1,2.8
			c-0.3,0.3-0.8,0.4-1.3,0.5c-0.4,0.1-1,0.1-1.5,0.1c0-0.6-0.2-1.6-0.6-2.2c0.4,0,0.7,0,1,0c0.2,0,0.4,0,0.6-0.1
			c0.3-0.2,0.4-0.7,0.4-1.3c0-1-0.3-2.4-1.6-3.9c0.4-1.3,0.9-3,1.3-4.4h-2v16.7h-2.4v-19h5.2l0.4-0.1L18,412.5z M21.3,422
			c-0.6,2.5-1.7,5.1-2.8,6.7c-0.4-0.4-1.4-1-2-1.3c1.1-1.5,2-3.7,2.5-5.9L21.3,422z M24.8,419.5v8.2c0,1.3-0.2,2-1,2.4
			c-0.8,0.4-1.8,0.5-3.3,0.5c-0.1-0.7-0.4-1.9-0.7-2.6c0.9,0,1.7,0,2,0c0.3,0,0.4-0.1,0.4-0.3v-8.2h-4.1v-2.4h11.5v2.4H24.8z
			 M28.4,414.5h-9.3v-2.4h9.3V414.5z M27.6,421.4c1,2.1,1.9,4.9,2.2,6.6l-2.3,0.9c-0.2-1.7-1.1-4.6-2-6.8L27.6,421.4z"/>
	</g>
</g>
</svg>
