<?xml version="1.0" standalone="no"?><!DOCTYPE svg PUBLIC "-//W3C//DTD SVG 1.1//EN" "http://www.w3.org/Graphics/SVG/1.1/DTD/svg11.dtd"><svg t="1652778435191" class="icon" viewBox="0 0 1024 1024" version="1.1" xmlns="http://www.w3.org/2000/svg" p-id="12058" xmlns:xlink="http://www.w3.org/1999/xlink" width="200" height="200"><defs><style type="text/css">@font-face { font-family: feedback-iconfont; src: url("//at.alicdn.com/t/font_1031158_u69w8yhxdu.woff2?t=1630033759944") format("woff2"), url("//at.alicdn.com/t/font_1031158_u69w8yhxdu.woff?t=1630033759944") format("woff"), url("//at.alicdn.com/t/font_1031158_u69w8yhxdu.ttf?t=1630033759944") format("truetype"); }
</style></defs><path d="M17.077445 199.562105l646.88506 0c1.039679 0 2.051729-0.107447 3.040243-0.285502 7.791453 39.065737 42.263569 68.509327 83.620489 68.509327 41.256636 0 75.668377-29.29828 83.569324-68.222801l172.267459 0c9.419534 0 17.055444-7.635911 17.055444-17.055444s-7.635911-17.055444-17.055444-17.055444L834.193585 165.452239c-7.90197-38.924521-42.312688-68.222801-83.569324-68.222801-41.35692 0-75.829036 29.442566-83.620489 68.509327-0.98749-0.178055-2.000564-0.285502-3.040243-0.285502L17.077445 165.453263c-9.419534 0-17.055444 7.635911-17.055444 17.055444S7.657912 199.562105 17.077445 199.562105zM750.623237 131.338281c28.258601 0 51.167357 22.908756 51.167357 51.167357s-22.908756 51.167357-51.167357 51.167357c-28.258601 0-51.167357-22.908756-51.167357-51.167357S722.364637 131.338281 750.623237 131.338281z" p-id="12059"></path><path d="M1006.461043 540.677133 390.74282 540.677133c-7.90197-38.924521-42.312688-68.222801-83.569324-68.222801-41.256636 0-75.668377 29.29828-83.569324 68.222801L17.077445 540.677133c-9.419534 0-17.055444 7.635911-17.055444 17.055444 0 9.419534 7.635911 17.055444 17.055444 17.055444l206.525704 0c7.90197 38.924521 42.312688 68.222801 83.569324 68.222801 41.256636 0 75.667354-29.29828 83.569324-68.222801l615.718223 0c9.419534 0 17.055444-7.635911 17.055444-17.055444C1023.516488 548.314067 1015.880577 540.677133 1006.461043 540.677133zM307.173496 608.900957c-28.258601 0-51.167357-22.908756-51.167357-51.167357s22.908756-51.167357 51.167357-51.167357c28.258601 0 51.167357 22.908756 51.167357 51.167357S335.432097 608.900957 307.173496 608.900957z" p-id="12060"></path><path d="M1006.461043 881.793184 834.193585 881.793184c-7.90197-38.924521-42.312688-68.222801-83.569324-68.222801-41.256636 0-75.667354 29.29828-83.569324 68.222801L17.077445 881.793184c-9.419534 0-17.055444 7.635911-17.055444 17.055444 0 9.419534 7.635911 17.055444 17.055444 17.055444l649.976468 0c7.90197 38.924521 42.312688 68.222801 83.569324 68.222801 41.256636 0 75.668377-29.29828 83.569324-68.222801l172.267459 0c9.419534 0 17.055444-7.635911 17.055444-17.055444C1023.516488 889.430118 1015.880577 881.793184 1006.461043 881.793184zM750.623237 950.017008c-28.258601 0-51.167357-22.908756-51.167357-51.167357 0-28.258601 22.908756-51.167357 51.167357-51.167357 28.258601 0 51.167357 22.908756 51.167357 51.167357C801.790594 927.108253 778.882861 950.017008 750.623237 950.017008z" p-id="12061"></path></svg>