<?xml version="1.0" standalone="no"?><!DOCTYPE svg PUBLIC "-//W3C//DTD SVG 1.1//EN" "http://www.w3.org/Graphics/SVG/1.1/DTD/svg11.dtd"><svg t="1654156799030" class="icon" viewBox="0 0 1024 1024" version="1.1" xmlns="http://www.w3.org/2000/svg" p-id="4056" xmlns:xlink="http://www.w3.org/1999/xlink" width="200" height="200"><defs><style type="text/css">@font-face { font-family: feedback-iconfont; src: url("//at.alicdn.com/t/font_1031158_u69w8yhxdu.woff2?t=1630033759944") format("woff2"), url("//at.alicdn.com/t/font_1031158_u69w8yhxdu.woff?t=1630033759944") format("woff"), url("//at.alicdn.com/t/font_1031158_u69w8yhxdu.ttf?t=1630033759944") format("truetype"); }
</style></defs><path d="M186.636724 430.268534c4.909823 0 9.82374-1.855254 13.596669-5.573949l306.881342-302.44838 0 648.318712c0 10.698666 8.67252 19.371186 19.371186 19.371186s19.371186-8.67252 19.371186-19.371186l0-647.568628 302.538431 298.121841c3.773953 3.718695 8.683776 5.572926 13.594623 5.572926 5.004991 0 10.007935-1.927909 13.798261-5.774517 7.509021-7.620561 7.41897-19.884886-0.201591-27.393907L540.528754 63.354933c-3.354398-3.306302-7.608282-5.134951-11.961426-5.501294-0.684592-0.073678-1.378393-0.115634-2.081405-0.115634-0.328481 0-0.648776 0.032746-0.974188 0.049119-4.989641-0.061398-10.001795 1.788739-13.837146 5.568832L173.039032 397.101133c-7.619538 7.509021-7.708566 19.774369-0.199545 27.393907C176.629813 428.341648 181.631734 430.268534 186.636724 430.268534z" p-id="4057"></path><path d="M876.833219 705.913455c-10.698666 0-19.371186 8.67252-19.371186 19.371186l0 165.41847c0 13.05534-10.620895 23.676236-23.676236 23.676236l-618.946754 0c-13.05534 0-23.676236-10.620895-23.676236-23.676236L191.162808 725.284641c0-10.698666-8.67252-19.371186-19.371186-19.371186s-19.371186 8.67252-19.371186 19.371186l0 165.41847c0 34.417881 28.000728 62.417585 62.417585 62.417585l618.946754 0c34.417881 0 62.417585-27.999704 62.417585-62.417585L896.202359 725.284641C896.204405 714.585975 887.531885 705.913455 876.833219 705.913455z" p-id="4058"></path></svg>