<?xml version="1.0" standalone="no"?><!DOCTYPE svg PUBLIC "-//W3C//DTD SVG 1.1//EN" "http://www.w3.org/Graphics/SVG/1.1/DTD/svg11.dtd"><svg t="1652840923018" class="icon" viewBox="0 0 1024 1024" version="1.1" xmlns="http://www.w3.org/2000/svg" p-id="1990" xmlns:xlink="http://www.w3.org/1999/xlink" width="200" height="200"><defs><style type="text/css">@font-face { font-family: feedback-iconfont; src: url("//at.alicdn.com/t/font_1031158_u69w8yhxdu.woff2?t=1630033759944") format("woff2"), url("//at.alicdn.com/t/font_1031158_u69w8yhxdu.woff?t=1630033759944") format("woff"), url("//at.alicdn.com/t/font_1031158_u69w8yhxdu.ttf?t=1630033759944") format("truetype"); }
</style></defs><path d="M504.46 644.953333L76.533333 217.026667A53.073333 53.073333 0 0 1 96 213.333333h288v192a21.333333 21.333333 0 0 0 21.333333 21.333334h213.333334a21.333333 21.333333 0 0 0 21.333333-21.333334V213.333333h288a53.073333 53.073333 0 0 1 19.466667 3.693334L519.54 644.953333a10.666667 10.666667 0 0 1-15.08 0zM362.666667 170.666667h64v213.333333h170.666666V170.666667h64a21.333333 21.333333 0 0 0 13.886667-37.533334l-149.333333-128a21.333333 21.333333 0 0 0-27.773334 0l-149.333333 128A21.333333 21.333333 0 0 0 362.666667 170.666667z m614.973333 76.533333l-427.926667 427.926667a53.333333 53.333333 0 0 1-75.426666 0L46.36 247.2A53.073333 53.073333 0 0 0 42.666667 266.666667v661.333333a53.393333 53.393333 0 0 0 53.333333 53.333333h832a53.393333 53.393333 0 0 0 53.333333-53.333333V266.666667a53.073333 53.073333 0 0 0-3.693333-19.466667z" fill="#5C5C66" p-id="1991"></path></svg>