<?xml version="1.0" standalone="no"?><!DOCTYPE svg PUBLIC "-//W3C//DTD SVG 1.1//EN" "http://www.w3.org/Graphics/SVG/1.1/DTD/svg11.dtd"><svg t="1652783449270" class="icon" viewBox="0 0 1024 1024" version="1.1" xmlns="http://www.w3.org/2000/svg" p-id="1243" xmlns:xlink="http://www.w3.org/1999/xlink" width="200" height="200"><defs><style type="text/css">@font-face { font-family: feedback-iconfont; src: url("//at.alicdn.com/t/font_1031158_u69w8yhxdu.woff2?t=1630033759944") format("woff2"), url("//at.alicdn.com/t/font_1031158_u69w8yhxdu.woff?t=1630033759944") format("woff"), url("//at.alicdn.com/t/font_1031158_u69w8yhxdu.ttf?t=1630033759944") format("truetype"); }
</style></defs><path d="M514.048 0C232.192 0 4.096 227.84 4.096 509.952c0 281.856 227.84 509.952 509.952 509.952 281.856 0 509.952-228.096 509.952-509.952C1024 227.84 795.904 0 514.048 0z m-36.352 255.744c0-13.056 6.912-25.088 18.176-31.488 11.264-6.4 25.088-6.4 36.352 0 11.264 6.4 18.176 18.432 18.176 31.488v290.56c0 19.968-16.128 36.352-36.352 36.352-19.968 0-36.352-16.384-36.352-36.352V255.744z m297.728 349.184c-34.048 115.712-140.288 195.328-260.864 195.584-120.576 0.256-227.072-79.104-261.632-194.816-34.304-115.712 11.264-240.128 112.64-305.92 1.28-1.024 2.816-1.792 4.352-2.816 11.264-6.144 24.832-5.888 35.84 0.768 11.008 6.656 17.664 18.432 17.664 31.232 0 14.08-8.192 26.112-19.712 32.768-73.472 48.64-106.24 139.776-80.64 224 25.344 84.224 103.168 142.08 191.232 142.08 88.064 0 165.888-57.6 191.232-142.08 25.344-84.224-7.424-175.36-80.64-224-11.264-6.656-19.968-18.432-19.968-32.768 0-13.568 7.424-26.112 19.712-32.256 12.032-6.144 26.624-5.376 37.632 2.56 101.12 65.536 147.2 189.952 113.152 305.664z" fill="#00AB86" p-id="1244"></path></svg>