<?xml version="1.0" standalone="no"?><!DOCTYPE svg PUBLIC "-//W3C//DTD SVG 1.1//EN" "http://www.w3.org/Graphics/SVG/1.1/DTD/svg11.dtd"><svg t="1652783533034" class="icon" viewBox="0 0 1024 1024" version="1.1" xmlns="http://www.w3.org/2000/svg" p-id="5198" xmlns:xlink="http://www.w3.org/1999/xlink" width="200" height="200"><defs><style type="text/css">@font-face { font-family: feedback-iconfont; src: url("//at.alicdn.com/t/font_1031158_u69w8yhxdu.woff2?t=1630033759944") format("woff2"), url("//at.alicdn.com/t/font_1031158_u69w8yhxdu.woff?t=1630033759944") format("woff"), url("//at.alicdn.com/t/font_1031158_u69w8yhxdu.ttf?t=1630033759944") format("truetype"); }
</style></defs><path d="M512 1024a512 512 0 1 1 512-512 512.5632 512.5632 0 0 1-512 512zM232.8064 476.4672a60.7232 60.7232 0 0 0-43.9296 18.7904 65.4336 65.4336 0 0 0 0 90.5216l186.112 191.8976a60.7744 60.7744 0 0 0 87.808 0l372.2752-384a65.4336 65.4336 0 0 0 18.2272-45.312 64.7168 64.7168 0 0 0-18.2272-45.312 60.5696 60.5696 0 0 0-87.7568 0l-328.3456 338.8416L276.48 495.2064a60.7232 60.7232 0 0 0-43.6736-18.7392z" fill="#2FD17B" p-id="5199"></path></svg>