<?xml version="1.0" standalone="no"?><!DOCTYPE svg PUBLIC "-//W3C//DTD SVG 1.1//EN" "http://www.w3.org/Graphics/SVG/1.1/DTD/svg11.dtd"><svg t="1654573588136" class="icon" viewBox="0 0 1024 1024" version="1.1" xmlns="http://www.w3.org/2000/svg" p-id="11544" xmlns:xlink="http://www.w3.org/1999/xlink" width="200" height="200"><defs><style type="text/css">@font-face { font-family: feedback-iconfont; src: url("//at.alicdn.com/t/font_1031158_u69w8yhxdu.woff2?t=1630033759944") format("woff2"), url("//at.alicdn.com/t/font_1031158_u69w8yhxdu.woff?t=1630033759944") format("woff"), url("//at.alicdn.com/t/font_1031158_u69w8yhxdu.ttf?t=1630033759944") format("truetype"); }
</style></defs><path d="M473.66952 555.370292m-452.450536 0a452.450536 452.450536 0 1 0 904.901072 0 452.450536 452.450536 0 1 0-904.901072 0Z" fill="#70C4FF" p-id="11545"></path><path d="M473.66952 1024c-258.401596 0-468.629708-210.228112-468.629708-468.625663 0-258.405641 210.228112-468.629708 468.629708-468.629708s468.625663 210.228112 468.625663 468.629708c0 258.397551-210.224067 468.625663-468.625663 468.625663z m0-904.901072c-240.560014 0-436.271365 195.71135-436.271365 436.271364s195.71135 436.26732 436.271365 436.26732 436.26732-195.71135 436.26732-436.26732c0-240.560014-195.707306-436.271365-436.26732-436.271364z" fill="#6E6E96" p-id="11546"></path><path d="M467.679182 117.929982s-45.269322 255.671361 53.261833 274.317856c98.5352 18.638406 141.155183-7.992511 191.755543 42.615939 50.600359 50.604404 164.299488 33.078317 167.782055-18.642451 0.00809-0.004045-69.238765-258.344969-412.799431-298.291344zM187.61772 894.659657s104.505315 15.900081 200.492295-24.151459c101.65778-42.401564 193.749626-144.067434 141.984366-265.010787-81.417637-190.169984-160.149531-89.54767-132.523595-238.836933S338.39951 157.876357 277.85705 157.876357c-60.54246 0-324.744289 394.74752-90.23933 736.7833z" fill="#A3D9FF" opacity=".26" p-id="11547"></path><path d="M165.674718 886.472996s90.672123 15.03045 173.954409-22.832856c88.204799-40.096032 168.105639-136.244805 123.188213-250.570877-70.646353-179.815314-138.954816-84.673695-114.985373-225.824833 23.969443-141.155183-51.348646-197.410163-103.874327-197.410164-52.529726 0-281.75623 373.241356-78.282922 696.63873z" fill="#A3D9FF" opacity=".26" p-id="11548"></path><path d="M182.978342 208.687046c143.695313 22.052211 91.926009 144.799542 132.438655 288.316884 26.291154 93.111133 65.986752 79.50445 101.540481 148.561199 54.301345 71.803164-207.732475 311.598712-348.232401 111.272254-139.258175-343.855936 114.253266-548.150337 114.253265-548.150337z" fill="#9EE3C3" p-id="11549"></path><path d="M207.210697 851.129595c-60.259325 0-112.728379-29.397555-151.728272-85.005368l-1.059736-1.508707-0.69166-1.706903c-74.177457-183.152268-38.025098-327.421942 5.363396-416.197057 47.012628-96.185176 111.029566-148.447945 113.731487-150.624044l5.553501-4.473541 7.054118 1.084005c112.162108 17.210594 118.836016 92.184875 126.565616 178.990176 3.272237 36.730765 6.977268 78.359773 18.990303 120.923129 13.982849 49.5204 31.205577 65.34363 51.146406 83.670587 15.248869 14.015207 32.508001 29.874841 48.618411 60.73661 13.558146 19.075243 12.817949 46.017609-2.139695 76.0866-33.029779 66.375052-127.06717 138.024514-221.403875 138.024513z m-124.187277-102.098663c32.985286 46.276476 74.755863 69.736275 124.183232 69.736275 86.578792 0 167.385665-69.74032 192.431023-120.081812 9.38392-18.860869 10.993747-34.663875 4.412869-43.364225l-0.841317-1.112318-0.639077-1.241751c-13.643087-26.497438-27.577398-39.303253-42.336848-52.861399-21.591105-19.843754-43.914317-40.362989-60.392803-98.705082-12.834128-45.471562-16.684771-88.702309-20.078352-126.844706-7.361523-82.687702-11.891691-133.538838-91.954322-148.634005-15.875812 14.359015-64.06143 61.634555-100.250193 136.244804-58.050868 119.689467-59.57171 249.846859-4.534212 386.864219z" fill="#6E6E96" p-id="11550"></path><path d="M705.274363 944.087026s-101.949006-163.0092 0-230.921272c101.973274-67.912073 220.845694-63.919863 220.845693-157.799507-0.004045 257.673533-220.845694 388.720779-220.845693 388.720779z" fill="#9EE3C3" p-id="11551"></path><path d="M699.935236 966.070476l-8.380811-13.400399c-1.096139-1.751395-26.958545-43.45321-40.176928-94.518721-18.561555-71.714179-3.025505-126.504943 44.92147-158.446673 37.30108-24.843118 76.450631-40.302317 110.993163-53.945403 67.446922-26.634961 102.640665-42.753461 102.640665-90.388988h32.358343c0 138.016424-62.140154 240.115087-114.273489 301.462461-56.311607 66.265842-112.145929 99.776952-114.495954 101.172406l-13.586459 8.065317z m202.356945-331.195734c-22.618482 17.093295-52.452875 28.871732-83.104315 40.977797-33.050003 13.052547-70.50883 27.844354-104.946198 50.782375-71.528118 47.647661-24.050339 155.17848-3.434029 194.303762 40.844319-28.993076 160.088859-125.752612 191.484542-286.063934z" fill="#6E6E96" p-id="11552"></path><path d="M469.673264 98.9235c-249.879217 0-452.446491 202.571319-452.446491 452.446492s202.571319 452.446491 452.446491 452.446491c249.879217 0 452.446491-202.571319 452.446492-452.446491 0.004045-249.875172-202.56323-452.446491-452.446492-452.446492z m326.827358 503.867944c-15.968842 55.761515-112.356258 38.534742-150.644267 80.00196-31.14895 33.741663-1.011198 129.162372-42.834357 149.345889-48.128991 23.213067-102.114842 36.217076-159.130244 36.217075-63.147307 0 77.000723-115.191658 25.122209-143.302968-18.45639-10.002773-27.929295 45.095396-36.621555-77.271724-3.191342-44.937649-67.851401-65.776422-110.188249-168.659775-10.633761-25.842182-30.501783-207.801236-38.292054-197.410164-47.938886 63.919863-7.988466 264.242277 37.284901 368.856801 28.61691 66.128319-165.161029 181.057066-165.161029 78.307191 0-203.481398-91.845113-83.634183-78.885597-227.268824 18.197523-201.721913 164.194324-366.733285 366.741374-366.733285 85.44625 0 172.332447 24.572117 234.375526 73.74062 29.336883 23.24138 53.120265 51.991768 68.571375 86.23094 27.116292 60.089444-189.676519 21.473806-169.966244 31.335011 40.197152 20.1188 245.199392 94.886797 223.515257 88.993534-282.888772-76.875334-10.807687 65.371943 10.237371 86.429135 35.100713 35.112847-4.922513 69.04866-14.124417 101.188584z" fill="#6E6E96" opacity=".2" p-id="11553"></path><path d="M624.815342 599.980313s-45.277412 37.284901-18.642451 63.923908c26.630917 26.630917 78.562013-25.296135 93.216298-39.95042 14.64215-14.654285 9.553801-61.755898-74.573847-23.973488z" fill="#9EE3C3" p-id="11554"></path><path d="M624.540296 687.55817c-11.511481 0-21.817613-4.222764-29.806079-12.21932-9.153366-9.153366-13.675445-20.5071-13.076816-32.843718 1.36714-28.273103 29.656422-52.351755 32.876077-55.009184l1.678589-1.379274 1.977904-0.889855c23.302052-10.467924 43.250971-15.770648 59.292619-15.770648 28.705895 0 38.6844 16.59983 41.641144 23.73889 5.848771 14.108238 2.443055 31.464444-8.291826 42.203369-22.396018 22.400063-55.708933 52.169739-86.291612 52.16974z m9.032022-73.764889c-7.050074 6.338191-19.127826 20.054083-19.601066 30.299544-0.10112 2.23677 0.250777 4.975095 3.640314 8.368676 1.941501 1.941501 3.951763 2.738325 6.924685 2.738325 9.452681 0 28.123445-7.401971 63.410219-42.688744 1.152766-1.156811 2.228681-4.655557 1.278154-6.93682-0.958616-2.325756-5.464515-3.769747-11.746078-3.769747-7.624435 0.004045-21.376731 2.111382-43.906228 11.988766z" fill="#6E6E96" p-id="11555"></path><path d="M684.387052 570.886118c-143.347461 0-259.966931-116.61947-259.966931-259.962886a24.268758 24.268758 0 0 1 48.537515 0c0 116.583066 94.846349 211.425371 211.429416 211.425371 116.579022 0 211.425371-94.846349 211.425371-211.425371a24.268758 24.268758 0 0 1 48.537515 0c0 143.343416-116.61947 259.962886-259.962886 259.962886z" fill="#666666" opacity=".15" p-id="11556"></path><path d="M688.937444 277.488974m-238.642782 0a238.642782 238.642782 0 1 0 477.285564 0 238.642782 238.642782 0 1 0-477.285564 0Z" fill="#FF8F8F" p-id="11557"></path><path d="M693.754792 94.401422c116.902605 0 213.063512 88.892414 224.566903 202.769514a228.854384 228.854384 0 0 0 1.156811-22.9542c0-124.660518-101.059151-225.723714-225.723714-225.723714-124.668607 0-225.731803 101.055106-225.731803 225.723714 0 7.749823 0.400434 15.410661 1.156811 22.9542 11.503391-113.88519 107.652164-202.769514 224.574992-202.769514z" fill="#FFFFFF" opacity=".15" p-id="11558"></path><path d="M688.937444 532.310928c-140.508017 0-254.821954-114.313938-254.821954-254.821954s114.313938-254.821954 254.821954-254.821954 254.821954 114.313938 254.821954 254.821954-114.313938 254.821954-254.821954 254.821954z m0-477.285565c-122.666435 0-222.463611 99.797176-222.463611 222.463611s99.797176 222.463611 222.463611 222.46361 222.463611-99.797176 222.463611-222.46361-99.797176-222.463611-222.463611-222.463611z" fill="#6E6E96" p-id="11559"></path><path d="M867.450335 124.23177a217.383351 217.383351 0 0 1 37.871396 122.929346c0 120.631904-97.799048 218.418818-218.418818 218.418818-120.631904 0-218.418818-97.786914-218.418818-218.418818 0-67.831177 30.918397-128.42622 79.423554-168.485849-62.60935 43.016373-103.692311 115.098627-103.692311 196.7994 0 131.799577 106.83916 238.642782 238.642782 238.642782 131.795533 0 238.642782-106.843205 238.642783-238.642782 0.012134-57.411791-20.276547-110.079039-54.050568-151.242897z" fill="#6E6E96" opacity=".15" p-id="11560"></path><path d="M694.244212 337.748299a24.268758 24.268758 0 0 1-24.268757-24.268758V283.337744a24.268758 24.268758 0 0 1 24.268757-24.268757c24.341564 0 44.14487-19.803306 44.14487-44.148915S718.585776 170.771157 694.244212 170.771157c-24.349653 0-44.15296 19.803306-44.152959 44.148915a24.268758 24.268758 0 0 1-48.537515 0c0-51.105959 41.580471-92.68643 92.690474-92.68643 51.105959 0 92.682385 41.580471 92.682385 92.68643 0 42.713013-29.041613 78.772342-68.413627 89.46273v9.096739a24.268758 24.268758 0 0 1-24.268758 24.268758zM694.244212 425.063243a24.268758 24.268758 0 0 1-24.268757-24.268757v-18.051911a24.268758 24.268758 0 0 1 48.537515 0v18.051911a24.268758 24.268758 0 0 1-24.268758 24.268757z" fill="#6E6E96" p-id="11561"></path></svg>