<?xml version="1.0" standalone="no"?><!DOCTYPE svg PUBLIC "-//W3C//DTD SVG 1.1//EN" "http://www.w3.org/Graphics/SVG/1.1/DTD/svg11.dtd"><svg t="1654572731249" class="icon" viewBox="0 0 1053 1024" version="1.1" xmlns="http://www.w3.org/2000/svg" p-id="7355" xmlns:xlink="http://www.w3.org/1999/xlink" width="205.6640625" height="200"><defs><style type="text/css">@font-face { font-family: feedback-iconfont; src: url("//at.alicdn.com/t/font_1031158_u69w8yhxdu.woff2?t=1630033759944") format("woff2"), url("//at.alicdn.com/t/font_1031158_u69w8yhxdu.woff?t=1630033759944") format("woff"), url("//at.alicdn.com/t/font_1031158_u69w8yhxdu.ttf?t=1630033759944") format("truetype"); }
</style></defs><path d="M159.91661 597.146A159.933 159.933 0 0 1 0.15661 437.388a37.443 37.443 0 0 1 74.887 0 84.872 84.872 0 0 0 169.743 0 37.443 37.443 0 0 1 74.887 0 159.933 159.933 0 0 1-159.759 159.758z" fill="#05C697" p-id="7356"></path><path d="M404.54661 597.146a159.933 159.933 0 0 1-159.76-159.758 37.443 37.443 0 0 1 74.888 0 84.872 84.872 0 0 0 169.743 0 37.443 37.443 0 0 1 74.886 0A159.933 159.933 0 0 1 404.54661 597.146z" fill="#05C697" p-id="7357"></path><path d="M649.17561 597.146A159.933 159.933 0 0 1 489.41661 437.388a37.443 37.443 0 0 1 74.886 0 84.872 84.872 0 0 0 169.743 0 37.443 37.443 0 0 1 74.887 0 159.933 159.933 0 0 1-159.758 159.758z" fill="#05C697" p-id="7358"></path><path d="M893.80461 597.146A159.933 159.933 0 0 1 734.04661 437.388a37.443 37.443 0 0 1 74.887 0 84.872 84.872 0 0 0 169.743 0 37.443 37.443 0 0 1 74.887 0 159.933 159.933 0 0 1-159.759 159.758z" fill="#05C697" p-id="7359"></path><path d="M1016.11961 467.343a37.443 37.443 0 0 1-36.045-27.459l-67.223-239.637H138.64861L73.74661 439.684A37.498 37.498 0 1 1 1.35661 420.09l72.39-267.096a37.443 37.443 0 0 1 36.245-27.633h831.242a37.443 37.443 0 0 1 36.045 27.459l74.887 267.095a37.443 37.443 0 0 1-36.046 47.429zM948.72161 1024H122.47261a37.443 37.443 0 0 1-37.443-37.443v-432.72a37.443 37.443 0 0 1 74.886 0v395.276h751.363v-402.44a37.443 37.443 0 0 1 74.887 0v439.884A37.443 37.443 0 0 1 948.72161 1024z" fill="#05C697" p-id="7360"></path><path d="M456.96661 1009.023H282.23061a24.962 24.962 0 0 1-24.962-24.963V669.537a24.962 24.962 0 0 1 24.962-24.963H456.96661a24.962 24.962 0 0 1 24.962 24.963V984.06a24.962 24.962 0 0 1-24.962 24.963z m-149.774-49.925h124.811v-264.6h-124.81z m524.207-102.345h-257.11a24.962 24.962 0 0 1-24.963-24.962V674.529a24.962 24.962 0 0 1 24.962-24.962h257.11a24.962 24.962 0 0 1 24.963 24.962v157.262a24.962 24.962 0 0 1-24.962 24.962zM599.25061 806.83h207.187V699.49H599.25061z m214.675-614.07a37.443 37.443 0 0 1-37.443-37.444V74.887h-509.23v73.264a37.443 37.443 0 1 1-74.886 0V37.443A37.443 37.443 0 0 1 229.81061 0h584.115a37.443 37.443 0 0 1 37.444 37.443v117.872a37.443 37.443 0 0 1-37.444 37.443z" fill="#05C697" p-id="7361"></path></svg>