<?xml version="1.0" standalone="no"?><!DOCTYPE svg PUBLIC "-//W3C//DTD SVG 1.1//EN" "http://www.w3.org/Graphics/SVG/1.1/DTD/svg11.dtd"><svg t="1652783711319" class="icon" viewBox="0 0 1024 1024" version="1.1" xmlns="http://www.w3.org/2000/svg" p-id="6335" xmlns:xlink="http://www.w3.org/1999/xlink" width="200" height="200"><defs><style type="text/css">@font-face { font-family: feedback-iconfont; src: url("//at.alicdn.com/t/font_1031158_u69w8yhxdu.woff2?t=1630033759944") format("woff2"), url("//at.alicdn.com/t/font_1031158_u69w8yhxdu.woff?t=1630033759944") format("woff"), url("//at.alicdn.com/t/font_1031158_u69w8yhxdu.ttf?t=1630033759944") format("truetype"); }
</style></defs><path d="M512 1024C229.248 1024 0 794.752 0 512S229.248 0 512 0s512 229.248 512 512-229.248 512-512 512z" fill="#7C51DE" p-id="6336"></path><path d="M768 426.666667v298.666666a42.666667 42.666667 0 0 1-42.666667 42.666667H298.666667a42.666667 42.666667 0 0 1-42.666667-42.666667v-298.666666h512z m-123.008 65.322666l-158.421333 130.56-67.285334-49.664-35.285333 27.52 102.570667 94.976 170.026666-188.8-11.605333-14.592zM659.84 256a42.666667 42.666667 0 0 1 35.498667 18.986667l65.493333 98.261333a42.666667 42.666667 0 0 1 5.162667 10.752H533.333333V256h126.506667zM490.666667 256v128H258.005333a42.666667 42.666667 0 0 1 5.12-10.752l65.536-98.261333A42.666667 42.666667 0 0 1 364.16 256H490.666667z" fill="#FFFFFF" p-id="6337"></path></svg>