<?xml version="1.0" standalone="no"?><!DOCTYPE svg PUBLIC "-//W3C//DTD SVG 1.1//EN" "http://www.w3.org/Graphics/SVG/1.1/DTD/svg11.dtd"><svg t="1652952284755" class="icon" viewBox="0 0 1024 1024" version="1.1" xmlns="http://www.w3.org/2000/svg" p-id="13227" xmlns:xlink="http://www.w3.org/1999/xlink" width="200" height="200"><defs><style type="text/css">@font-face { font-family: feedback-iconfont; src: url("//at.alicdn.com/t/font_1031158_u69w8yhxdu.woff2?t=1630033759944") format("woff2"), url("//at.alicdn.com/t/font_1031158_u69w8yhxdu.woff?t=1630033759944") format("woff"), url("//at.alicdn.com/t/font_1031158_u69w8yhxdu.ttf?t=1630033759944") format("truetype"); }
</style></defs><path d="M512 0C229.205333 0 0 229.205333 0 512s229.205333 512 512 512 512-229.205333 512-512S794.794667 0 512 0z m329.557333 342.186667l-398.336 398.336a42.368 42.368 0 0 1-4.693333 5.461333c-0.085333 0.128-0.085333 0.256-0.213333 0.256a45.44 45.44 0 0 1-41.258667 12.373333 45.312 45.312 0 0 1-27.733333-16.853333L182.741333 558.08a45.610667 45.610667 0 1 1 64.085334-64.981333l158.72 156.288 371.712-371.712a45.696 45.696 0 0 1 64.554666 0 45.696 45.696 0 0 1-0.213333 64.512z" fill="#00C348" p-id="13228"></path></svg>