<?xml version="1.0" standalone="no"?><!DOCTYPE svg PUBLIC "-//W3C//DTD SVG 1.1//EN" "http://www.w3.org/Graphics/SVG/1.1/DTD/svg11.dtd"><svg t="1652779794122" class="icon" viewBox="0 0 1024 1024" version="1.1" xmlns="http://www.w3.org/2000/svg" p-id="45960" xmlns:xlink="http://www.w3.org/1999/xlink" width="200" height="200"><defs><style type="text/css">@font-face { font-family: feedback-iconfont; src: url("//at.alicdn.com/t/font_1031158_u69w8yhxdu.woff2?t=1630033759944") format("woff2"), url("//at.alicdn.com/t/font_1031158_u69w8yhxdu.woff?t=1630033759944") format("woff"), url("//at.alicdn.com/t/font_1031158_u69w8yhxdu.ttf?t=1630033759944") format("truetype"); }
</style></defs><path d="M884.363636 279.272727l-132.189091-131.258182a91.694545 91.694545 0 0 0-129.62909-2.56l-51.432728 51.665455L159.650909 608.349091l-5.818182 5.585454a23.272727 23.272727 0 0 0-6.749091 17.221819l5.818182 224.581818a23.272727 23.272727 0 0 0 23.272727 23.272727l224.581819 5.818182a23.272727 23.272727 0 0 0 16.290909-6.749091l417.28-417.745455 51.665454-51.665454A93.090909 93.090909 0 0 0 884.363636 279.272727zM406.341818 822.458182L209.454545 624.872727l377.949091-378.414545 197.585455 197.585454z m-211.549091-145.92L354.909091 837.818182l-156.16-3.956364z m658.152728-300.683637l-35.141819 35.141819-197.352727-197.585455 35.141818-35.141818a46.545455 46.545455 0 0 1 63.767273 2.56l131.258182 131.258182a45.149091 45.149091 0 0 1 2.327273 63.767272z" p-id="45961"></path><path d="M587.403636 345.134545a23.272727 23.272727 0 0 0-32.814545 0L307.665455 592.058182a23.272727 23.272727 0 0 0 16.523636 39.796363 23.272727 23.272727 0 0 0 16.523636-6.981818l246.690909-246.690909a23.272727 23.272727 0 0 0 0-33.047273zM686.312727 444.043636a23.272727 23.272727 0 0 0-33.047272 0l-246.923637 246.690909a23.272727 23.272727 0 0 0 0 33.047273 23.272727 23.272727 0 0 0 16.523637 6.749091 23.272727 23.272727 0 0 0 16.523636-6.749091l246.923636-246.923636a23.272727 23.272727 0 0 0 0-32.814546z" p-id="45962"></path></svg>