<?xml version="1.0" standalone="no"?><!DOCTYPE svg PUBLIC "-//W3C//DTD SVG 1.1//EN" "http://www.w3.org/Graphics/SVG/1.1/DTD/svg11.dtd"><svg t="1652782684478" class="icon" viewBox="0 0 1024 1024" version="1.1" xmlns="http://www.w3.org/2000/svg" p-id="8512" xmlns:xlink="http://www.w3.org/1999/xlink" width="200" height="200"><defs><style type="text/css">@font-face { font-family: feedback-iconfont; src: url("//at.alicdn.com/t/font_1031158_u69w8yhxdu.woff2?t=1630033759944") format("woff2"), url("//at.alicdn.com/t/font_1031158_u69w8yhxdu.woff?t=1630033759944") format("woff"), url("//at.alicdn.com/t/font_1031158_u69w8yhxdu.ttf?t=1630033759944") format("truetype"); }
</style></defs><path d="M646.4 915.2c21.184 0 38.4 17.216 38.4 38.4s-17.216 38.4-38.4 38.4H128c-52.992 0-96-43.008-96-96V377.6c0-21.184 17.216-38.4 38.4-38.4s38.4 17.216 38.4 38.4v480c0 31.808 25.792 57.6 57.6 57.6h480z" p-id="8513"></path><path d="M800 800c21.184 0 38.4 17.216 38.4 38.4s-17.216 38.4-38.4 38.4H243.2c-52.992 0-96-42.944-96-96V224c0-21.248 17.216-38.4 38.4-38.4s38.4 17.152 38.4 38.4v518.4c0 31.808 25.792 57.6 57.6 57.6h518.4z" p-id="8514"></path><path d="M992 396.8v250.496c0 63.168-51.136 114.304-114.304 114.304H376.704c-63.168 0-114.304-51.136-114.304-114.304V146.304c0-63.168 51.136-114.304 114.304-114.304h250.496c21.184 0 38.4 17.216 38.4 38.4s-17.216 38.4-38.4 38.4H407.744c-37.824 0-68.544 30.72-68.544 68.608v438.784c0 37.888 30.72 68.608 68.544 68.608h438.912c37.824 0 68.544-30.72 68.544-68.608V396.8c0-21.184 17.216-38.4 38.4-38.4s38.4 17.216 38.4 38.4z" p-id="8515"></path><path d="M875.008 86.4c46.976 0 84.992 38.016 84.992 84.992 0 19.136-6.336 36.8-17.024 51.008l-33.984 33.984-118.976-118.976 33.984-33.984c14.208-10.688 31.872-17.024 51.008-17.024z m-110.528 76.544L450.048 477.376l-34.048 153.024 153.024-34.048 314.432-314.432-118.976-118.976zM558.208 517.568l-29.376-29.312 238.016-238.016 29.312 29.312-237.952 238.016z" p-id="8516"></path></svg>