<?xml version="1.0" standalone="no"?><!DOCTYPE svg PUBLIC "-//W3C//DTD SVG 1.1//EN" "http://www.w3.org/Graphics/SVG/1.1/DTD/svg11.dtd"><svg t="1652778878178" class="icon" viewBox="0 0 1024 1024" version="1.1" xmlns="http://www.w3.org/2000/svg" p-id="20324" xmlns:xlink="http://www.w3.org/1999/xlink" width="200" height="200"><defs><style type="text/css">@font-face { font-family: feedback-iconfont; src: url("//at.alicdn.com/t/font_1031158_u69w8yhxdu.woff2?t=1630033759944") format("woff2"), url("//at.alicdn.com/t/font_1031158_u69w8yhxdu.woff?t=1630033759944") format("woff"), url("//at.alicdn.com/t/font_1031158_u69w8yhxdu.ttf?t=1630033759944") format("truetype"); }
</style></defs><path d="M940.8 1024c-19.2 0-32-12.8-32-32 0-166.4-102.4-320-262.4-377.6-12.8-6.4-25.6-19.2-25.6-32s6.4-25.6 19.2-32c76.8-44.8 128-128 128-224 0-140.8-115.2-256-256-256s-256 115.2-256 256c0 89.6 51.2 172.8 128 224 12.8 6.4 19.2 19.2 19.2 32s-12.8 25.6-25.6 32c-160 57.6-262.4 211.2-262.4 377.6 0 19.2-12.8 32-32 32s-32-12.8-32-32c0-172.8 96-332.8 249.6-416-76.8-64-121.6-153.6-121.6-249.6C179.2 147.2 326.4 0 505.6 0S832 147.2 832 326.4c0 89.6-38.4 179.2-108.8 243.2 153.6 83.2 249.6 243.2 249.6 416 6.4 25.6-12.8 38.4-32 38.4z" p-id="20325"></path><path d="M569.6 659.2c0-6.4-6.4-12.8-12.8-19.2 12.8-12.8 19.2-25.6 19.2-44.8 0-38.4-32-70.4-70.4-70.4-38.4 0-70.4 32-70.4 70.4 0 19.2 12.8 32 19.2 44.8-6.4 6.4-6.4 12.8-6.4 19.2l-32 147.2c0 12.8 0 25.6 12.8 32l70.4 64c6.4 6.4 12.8 6.4 19.2 6.4 6.4 0 19.2-6.4 19.2-6.4l57.6-64c6.4-6.4 12.8-19.2 6.4-25.6l-32-153.6zM505.6 576c12.8 0 25.6 12.8 25.6 25.6s-12.8 25.6-25.6 25.6-25.6-12.8-25.6-25.6c6.4-19.2 12.8-25.6 25.6-25.6z m6.4 256l-38.4-32 25.6-96h25.6l19.2 96-32 32z" p-id="20326"></path></svg>