<?xml version="1.0" standalone="no"?><!DOCTYPE svg PUBLIC "-//W3C//DTD SVG 1.1//EN" "http://www.w3.org/Graphics/SVG/1.1/DTD/svg11.dtd"><svg t="1652783312097" class="icon" viewBox="0 0 1237 1024" version="1.1" xmlns="http://www.w3.org/2000/svg" p-id="2060" xmlns:xlink="http://www.w3.org/1999/xlink" width="241.6015625" height="200"><defs><style type="text/css">@font-face { font-family: feedback-iconfont; src: url("//at.alicdn.com/t/font_1031158_u69w8yhxdu.woff2?t=1630033759944") format("woff2"), url("//at.alicdn.com/t/font_1031158_u69w8yhxdu.woff?t=1630033759944") format("woff"), url("//at.alicdn.com/t/font_1031158_u69w8yhxdu.ttf?t=1630033759944") format("truetype"); }
</style></defs><path d="M936.917333 292.821333a291.242667 291.242667 0 0 1 291.328 291.968 291.626667 291.626667 0 0 1-57.770666 173.909334c-52.608 71.253333-233.557333 240.64-233.557334 240.64l-1.194666-1.194667c-15.445333-15.061333-174.677333-171.008-225.322667-238.165333-3.2-3.84 0.64-8.362667-1.92-12.202667 33.365333-35.925333 56.448-68.693333 74.410667-93.013333 50.688-68.693333 74.453333-152.746667 74.453333-244.522667 0-35.285333-4.48-69.290667-12.8-102.016a276.48 276.48 0 0 1 92.373333-15.402667zM409.429333 0.853333c225.877333 0 409.429333 182.869333 409.429334 409.386667 0 91.733333-30.165333 176.469333-80.896 244.48-74.410667 100.138667-328.533333 338.176-328.533334 338.176s-252.842667-237.397333-327.253333-336.896A407.168 407.168 0 0 1 0 410.24C0 184.362667 183.552 0.853333 409.429333 0.853333z m547.413334 508.842667a91.733333 91.733333 0 1 0 0 183.552 91.306667 91.306667 0 0 0 91.733333-91.776 91.733333 91.733333 0 0 0-91.733333-91.733333zM409.386667 245.973333A159.402667 159.402667 0 0 0 249.642667 405.76a159.786667 159.786667 0 1 0 159.786666-159.786667z" p-id="2061"></path></svg>