<?xml version="1.0" standalone="no"?><!DOCTYPE svg PUBLIC "-//W3C//DTD SVG 1.1//EN" "http://www.w3.org/Graphics/SVG/1.1/DTD/svg11.dtd"><svg t="1652778605310" class="icon" viewBox="0 0 1024 1024" version="1.1" xmlns="http://www.w3.org/2000/svg" p-id="14413" xmlns:xlink="http://www.w3.org/1999/xlink" width="200" height="200"><defs><style type="text/css">@font-face { font-family: feedback-iconfont; src: url("//at.alicdn.com/t/font_1031158_u69w8yhxdu.woff2?t=1630033759944") format("woff2"), url("//at.alicdn.com/t/font_1031158_u69w8yhxdu.woff?t=1630033759944") format("woff"), url("//at.alicdn.com/t/font_1031158_u69w8yhxdu.ttf?t=1630033759944") format("truetype"); }
</style></defs><path d="M464 256a80 80 0 0 1 5.248 159.84L464 416c-37.12 0-68.32-25.28-77.376-59.52l-0.8-3.392h-144.96a112.096 112.096 0 0 0-6.176 224.032l6.144 0.192H784.64a144.096 144.096 0 0 1 6.784 288.032l-6.784 0.16H254.08l0.128-0.64a80.032 80.032 0 0 1-72.96 62.976L176 928a80 80 0 0 1-5.248-159.84L176 768a80 80 0 0 1 78.592 65.056l0.064 0.448H784.64a112.096 112.096 0 0 0 6.176-224.032l-6.176-0.16H240.832a144.096 144.096 0 0 1-6.784-288.064l6.784-0.16 144.576-0.064-0.032 0.032 0.128-0.544a80.032 80.032 0 0 1 73.248-64.32L464 256z m-288 544a48 48 0 1 0 0 96 48 48 0 0 0 0-96z m608-320a16 16 0 0 1 15.744 13.12l0.256 2.88a16 16 0 0 1-31.744 2.88L768 496a16 16 0 0 1 16-16z m0-96a16 16 0 0 1 15.744 13.12l0.256 2.88v32a16 16 0 0 1-31.744 2.88L768 432v-32a16 16 0 0 1 16-16z m-320-96a48 48 0 1 0 0 96 48 48 0 0 0 0-96z m329.984-188.064l2.304 2.208 112 129.856a16 16 0 0 1-22.144 22.912l-2.08-1.984-83.904-97.344V336a16 16 0 0 1-31.744 2.88l-0.256-2.88V155.584l-83.872 97.344a16 16 0 0 1-20.224 3.328l-2.336-1.664a16 16 0 0 1-3.36-20.224l1.696-2.368 112-129.856a16 16 0 0 1 21.92-2.208z" p-id="14414"></path></svg>