<?xml version="1.0" standalone="no"?><!DOCTYPE svg PUBLIC "-//W3C//DTD SVG 1.1//EN" "http://www.w3.org/Graphics/SVG/1.1/DTD/svg11.dtd"><svg t="1654157143398" class="icon" viewBox="0 0 1024 1024" version="1.1" xmlns="http://www.w3.org/2000/svg" p-id="6311" xmlns:xlink="http://www.w3.org/1999/xlink" width="200" height="200"><defs><style type="text/css">@font-face { font-family: feedback-iconfont; src: url("//at.alicdn.com/t/font_1031158_u69w8yhxdu.woff2?t=1630033759944") format("woff2"), url("//at.alicdn.com/t/font_1031158_u69w8yhxdu.woff?t=1630033759944") format("woff"), url("//at.alicdn.com/t/font_1031158_u69w8yhxdu.ttf?t=1630033759944") format("truetype"); }
</style></defs><path d="M853.32224 0H170.67776C76.397202 0 0 76.402322 0 170.600963v682.721277c0 94.280557 76.397202 170.67776 170.67776 170.67776h682.64448c94.280557 0 170.67776-76.397202 170.67776-170.67776V170.600963C1024 76.402322 947.597678 0 853.32224 0z m85.377279 853.32224c0 47.060922-38.316356 85.300481-85.377279 85.300482H170.67776c-47.060922 0-85.300481-38.244679-85.300482-85.300482V170.600963c0-46.984126 38.239559-85.300481 85.300482-85.300482h682.64448c47.060922 0 85.377278 38.316356 85.377279 85.300482v682.721277z" p-id="6312"></path><path d="M426.66112 455.10144H312.925438V369.713923h-28.43008v28.511997h-28.511997v28.43008h-28.435201v28.440321H199.10784v28.43008h-28.4352v56.865281h28.4352v28.440321h28.44032v28.506877h28.435201v28.4352h28.511997v28.430081h28.43008v-85.372158h113.735682c31.450745 0 56.942078-25.414536 56.942078-56.870401 0-31.445625-25.496453-56.860161-56.942078-56.860162zM824.88704 483.531521v-28.430081h-28.44032v-28.44032h-28.435201v-28.43008h-28.4352v-28.511997h-28.4352v85.382397h-85.377278c-31.379068 0-56.865281 25.414536-56.865281 56.865281 0 31.450745 25.491333 56.870401 56.865281 56.870401h85.377278v85.372159h28.4352v-28.430081h28.4352v-28.4352h28.435201v-28.506878h28.44032v-28.44032h28.430081V483.531521h-28.430081z" p-id="6313"></path></svg>