<?xml version="1.0" standalone="no"?><!DOCTYPE svg PUBLIC "-//W3C//DTD SVG 1.1//EN" "http://www.w3.org/Graphics/SVG/1.1/DTD/svg11.dtd"><svg t="1652779572203" class="icon" viewBox="0 0 1443 1024" version="1.1" xmlns="http://www.w3.org/2000/svg" p-id="42226" xmlns:xlink="http://www.w3.org/1999/xlink" width="281.8359375" height="200"><defs><style type="text/css">@font-face { font-family: feedback-iconfont; src: url("//at.alicdn.com/t/font_1031158_u69w8yhxdu.woff2?t=1630033759944") format("woff2"), url("//at.alicdn.com/t/font_1031158_u69w8yhxdu.woff?t=1630033759944") format("woff"), url("//at.alicdn.com/t/font_1031158_u69w8yhxdu.ttf?t=1630033759944") format("truetype"); }
</style></defs><path d="M390.527069 446.133527C384.47616 446.133527 378.33216 444.969891 372.420887 442.456436 286.963433 406.337164 231.760524 322.974255 231.760524 230.255709 231.760524 103.326255 335.091433-0.004655 462.067433-0.004655 589.043433-0.004655 692.374342 103.326255 692.374342 230.255709 692.374342 320.134982 639.545251 402.427345 557.718342 439.803345 534.445615 450.5088 506.797615 440.222255 496.045615 416.856436 485.34016 393.490618 495.626705 365.842618 518.992524 355.183709 567.77216 332.841891 599.283433 283.829527 599.283433 230.255709 599.283433 154.619345 537.750342 93.086255 462.067433 93.086255 386.431069 93.086255 324.851433 154.619345 324.851433 230.255709 324.851433 285.551709 357.759069 335.169164 408.679796 356.719709 432.371433 366.726982 443.449251 394.049164 433.395433 417.7408 425.901615 435.474618 408.679796 446.133527 390.527069 446.133527" p-id="42227"></path><path d="M432.50176 928.041891 432.455215 928.041891 114.968669 927.576436C74.986124 927.529891 38.541033 907.701527 17.409396 874.468073-3.070604 842.258618-5.630604 802.415709 10.520669 767.878982 62.093033 657.705891 156.301033 457.048436 517.261033 482.415709 542.907578 484.184436 562.223942 506.433164 560.408669 532.079709 558.593396 557.726255 536.484305 577.694255 510.698124 575.227345 213.412305 554.468073 142.663215 705.182255 95.931578 805.022255 91.416669 814.657164 93.55776 820.708073 95.978124 824.5248 97.886487 827.550255 103.565033 834.485527 115.06176 834.485527L432.548305 834.950982C458.287942 834.997527 479.09376 855.849891 479.047215 881.542982 479.000669 907.236073 458.194851 928.041891 432.50176 928.041891" p-id="42228"></path><path d="M895.29856 591.541527C889.247651 591.541527 883.103651 590.377891 877.192378 587.864436 786.382196 549.464436 727.688378 460.934982 727.688378 362.351709 727.688378 227.369891 837.489105 117.522618 972.470924 117.522618 1107.452742 117.522618 1217.253469 227.369891 1217.253469 362.351709 1217.253469 457.909527 1161.073105 545.321891 1074.126196 585.025164 1050.853469 595.684073 1023.205469 585.444073 1012.453469 562.078255 1001.79456 538.665891 1012.081105 511.064436 1035.446924 500.405527 1089.34656 475.782982 1124.16256 421.604073 1124.16256 362.351709 1124.16256 278.662982 1056.159651 210.613527 972.470924 210.613527 888.828742 210.613527 820.779287 278.662982 820.779287 362.351709 820.779287 423.465891 857.177833 478.296436 913.451287 502.127709 937.142924 512.134982 948.220742 539.457164 938.166924 563.1488 930.673105 580.882618 913.451287 591.541527 895.29856 591.541527" p-id="42229"></path><path d="M1117.366924 1021.770473 1117.320378 1021.770473 645.256378 1021.305018C608.997469 1021.258473 575.857105 1003.245382 556.680378 973.037382 538.062196 943.6672 535.688378 907.408291 550.443287 875.943564 593.73056 783.504291 706.975651 627.7632 978.894196 623.527564 1259.423651 621.293382 1362.102924 785.9712 1398.175651 885.764655 1409.34656 916.717382 1404.878196 950.043927 1385.79456 977.179927 1366.198924 1005.1072 1333.896378 1021.770473 1299.406196 1021.770473L1231.217105 1021.770473C1205.524015 1021.770473 1184.671651 1000.964655 1184.671651 975.225018 1184.671651 949.485382 1205.524015 928.679564 1231.217105 928.679564L1299.406196 928.679564C1305.503651 928.679564 1308.575651 925.2352 1309.599651 923.745745 1311.787287 920.580655 1310.996015 918.346473 1310.623651 917.415564 1276.878196 823.998836 1193.515287 713.499927 980.383651 716.618473 770.137833 719.9232 676.348742 826.558836 634.737105 915.414109 634.225105 916.484655 632.875287 919.370473 635.249105 923.094109 636.459287 925.002473 639.391651 928.214109 645.349469 928.214109L1117.413469 928.679564C1143.10656 928.726109 1163.912378 949.531927 1163.912378 975.271564 1163.912378 1000.964655 1143.060015 1021.770473 1117.366924 1021.770473" p-id="42230"></path></svg>