<?xml version="1.0" standalone="no"?><!DOCTYPE svg PUBLIC "-//W3C//DTD SVG 1.1//EN" "http://www.w3.org/Graphics/SVG/1.1/DTD/svg11.dtd"><svg t="1653374409745" class="icon" viewBox="0 0 1024 1024" version="1.1" xmlns="http://www.w3.org/2000/svg" p-id="4984" xmlns:xlink="http://www.w3.org/1999/xlink" width="200" height="200"><defs><style type="text/css">@font-face { font-family: feedback-iconfont; src: url("//at.alicdn.com/t/font_1031158_u69w8yhxdu.woff2?t=1630033759944") format("woff2"), url("//at.alicdn.com/t/font_1031158_u69w8yhxdu.woff?t=1630033759944") format("woff"), url("//at.alicdn.com/t/font_1031158_u69w8yhxdu.ttf?t=1630033759944") format("truetype"); }
</style></defs><path d="M564.4288 114.85184l4.096 2.048 348.16 204.8a30.72 30.72 0 0 1 14.82752 21.87264l0.32768 4.58752v273.12128a164.53632 164.53632 0 0 0-61.44-51.85536V396.65664l-327.68 155.2384v339.27168l130.74432-68.77184c14.5408 17.24416 32.60416 31.45728 53.0432 41.49248l-200.21248 105.39008a30.39232 30.39232 0 0 1-25.10848 1.55648l-4.25984-1.96608-327.68-184.32a30.72 30.72 0 0 1-15.36-22.69184l-0.28672-4.096-0.04096-156.63104c18.59584 12.288 39.3216 21.58592 61.44 27.27936l0.04096 111.37024 266.24 149.79072v-339.1488l-36.2496-20.35712c10.0352-17.89952 17.44896-37.4784 21.7088-58.1632l46.44864 26.0096 322.3552-152.69888-283.0336-166.5024L391.5776 268.12416a204.22656 204.22656 0 0 0-65.37216-33.91488l211.84512-117.71904a30.72 30.72 0 0 1 26.33728-1.6384z" p-id="4985"></path><path d="M696.32 716.8h225.28v40.96H696.32z" p-id="4986"></path><path d="M870.4 614.4l92.16 115.17952-92.16 115.22048-31.9488-25.6 71.68-89.62048-71.68-89.57952zM266.24 245.76a184.32 184.32 0 1 1 0 368.64 184.32 184.32 0 0 1 0-368.64z m0 61.44a122.88 122.88 0 1 0 0 245.76 122.88 122.88 0 0 0 0-245.76z" p-id="4987"></path><path d="M305.23392 385.06496L250.2656 440.1152a12.288 12.288 0 0 1-17.408 0l-26.05056-26.05056a12.288 12.288 0 0 0-17.36704 0l-11.59168 11.55072a12.288 12.288 0 0 0 0 17.408l55.00928 55.00928a12.288 12.288 0 0 0 17.408 0l83.968-83.968a12.288 12.288 0 0 0 0-17.408l-11.59168-11.59168a12.288 12.288 0 0 0-17.36704 0z" p-id="4988"></path></svg>