<?xml version="1.0" standalone="no"?><!DOCTYPE svg PUBLIC "-//W3C//DTD SVG 1.1//EN" "http://www.w3.org/Graphics/SVG/1.1/DTD/svg11.dtd"><svg t="1653374386318" class="icon" viewBox="0 0 1457 1024" version="1.1" xmlns="http://www.w3.org/2000/svg" p-id="3918" xmlns:xlink="http://www.w3.org/1999/xlink" width="284.5703125" height="200"><defs><style type="text/css">@font-face { font-family: feedback-iconfont; src: url("//at.alicdn.com/t/font_1031158_u69w8yhxdu.woff2?t=1630033759944") format("woff2"), url("//at.alicdn.com/t/font_1031158_u69w8yhxdu.woff?t=1630033759944") format("woff"), url("//at.alicdn.com/t/font_1031158_u69w8yhxdu.ttf?t=1630033759944") format("truetype"); }
</style></defs><path d="M817.548387 854.709677h-161.032258c-20.645161 0-37.16129-16.516129-37.16129-37.16129s16.516129-37.16129 37.16129-37.16129h123.870968V82.580645H82.580645v697.806452h119.741936c20.645161 0 37.16129 16.516129 37.16129 37.16129s-16.516129 37.16129-37.16129 37.16129H45.419355c-20.645161 0-37.16129-16.516129-37.16129-37.16129V45.419355c0-20.645161 16.516129-37.16129 37.16129-37.16129h772.129032c20.645161 0 37.16129 16.516129 37.16129 37.16129v772.129032c0 20.645161-16.516129 37.16129-37.16129 37.16129z" p-id="3919"></path><path d="M1399.741935 854.709677h-66.064516c-20.645161 0-37.16129-16.516129-37.16129-37.16129s16.516129-37.16129 37.16129-37.16129h28.903226V272.516129H854.709677v507.870968h24.774194c20.645161 0 37.16129 16.516129 37.16129 37.16129s-16.516129 37.16129-37.16129 37.16129h-61.935484c-20.645161 0-37.16129-16.516129-37.16129-37.16129V235.354839c0-20.645161 16.516129-37.16129 37.16129-37.161291h582.193548c20.645161 0 37.16129 16.516129 37.161291 37.161291v582.193548c0 20.645161-16.516129 37.16129-37.161291 37.16129z" p-id="3920"></path><path d="M1110.709677 1015.741935c-90.83871 0-161.032258-74.322581-161.032258-161.032258 0-90.83871 74.322581-161.032258 161.032258-161.032258s161.032258 74.322581 161.032258 161.032258c0 86.709677-70.193548 161.032258-161.032258 161.032258z m0-251.870967c-49.548387 0-86.709677 41.290323-86.709677 86.709677 0 49.548387 41.290323 86.709677 86.709677 86.709678s86.709677-41.290323 86.709678-86.709678-37.16129-86.709677-86.709678-86.709677zM425.290323 1015.741935c-90.83871 0-161.032258-74.322581-161.032258-161.032258 0-90.83871 74.322581-161.032258 161.032258-161.032258 90.83871 0 161.032258 74.322581 161.032258 161.032258 0 86.709677-74.322581 161.032258-161.032258 161.032258z m0-251.870967c-49.548387 0-86.709677 41.290323-86.709678 86.709677 0 49.548387 41.290323 86.709677 86.709678 86.709678 49.548387 0 86.709677-41.290323 86.709677-86.709678s-41.290323-86.709677-86.709677-86.709677zM631.741935 214.709677H206.451613c-20.645161 0-37.16129-16.516129-37.16129-37.16129s16.516129-37.16129 37.16129-37.16129h429.419355c20.645161 0 37.16129 16.516129 37.16129 37.16129s-20.645161 37.16129-41.290323 37.16129zM644.129032 450.064516H214.709677c-20.645161 0-37.16129-16.516129-37.16129-37.16129s16.516129-37.16129 37.16129-37.161291h429.419355c20.645161 0 37.16129 16.516129 37.161291 37.161291s-16.516129 37.16129-37.161291 37.16129zM970.322581 375.741935h214.709677v74.322581h-214.709677z" p-id="3921"></path></svg>