<?xml version="1.0" standalone="no"?><!DOCTYPE svg PUBLIC "-//W3C//DTD SVG 1.1//EN" "http://www.w3.org/Graphics/SVG/1.1/DTD/svg11.dtd"><svg t="1652781893743" class="icon" viewBox="0 0 1024 1024" version="1.1" xmlns="http://www.w3.org/2000/svg" p-id="6885" xmlns:xlink="http://www.w3.org/1999/xlink" width="200" height="200"><defs><style type="text/css">@font-face { font-family: feedback-iconfont; src: url("//at.alicdn.com/t/font_1031158_u69w8yhxdu.woff2?t=1630033759944") format("woff2"), url("//at.alicdn.com/t/font_1031158_u69w8yhxdu.woff?t=1630033759944") format("woff"), url("//at.alicdn.com/t/font_1031158_u69w8yhxdu.ttf?t=1630033759944") format("truetype"); }
</style></defs><path d="M391.008711 112.2304c53.612089 0 70.109867 33.951289 70.109867 57.912889V445.781333c0 23.9616-30.9248 49.948444-57.730845 49.948445H106.473244c-26.806044 0-47.422578-25.964089-47.422577-49.948445V156.171378c0-23.9616 20.616533-43.940978 47.422577-43.940978h284.535467z" fill="#DAE9FF" p-id="6886"></path><path d="M836.380444 539.670756c55.660089 0 72.157867 35.953778 72.157867 57.912888v275.638045c0 21.981867-18.545778 41.938489-43.303822 41.938489H580.721778c-22.687289 0-43.303822-17.976889-43.303822-41.938489V597.583644c0-21.959111 18.545778-41.938489 43.303822-41.938488l255.658666-15.9744z m-441.230222 0c61.8496 5.984711 74.228622 35.953778 74.228622 57.912888v275.638045c0 21.981867-18.545778 41.938489-43.303822 41.938489H141.5168c-22.687289 0-43.303822-17.976889-43.303822-41.938489V597.583644c0-21.959111 18.568533-41.938489 43.303822-41.938488l253.633422-15.9744z m0 0" fill="#DAE9FF" p-id="6887"></path><path d="M386.889956 112.2304c22.687289 0 43.303822 17.976889 43.303822 41.938489v275.638044c0 21.981867-18.545778 41.938489-43.303822 41.938489H100.283733c-22.687289 0-43.303822-17.976889-43.303822-41.938489V154.168889c0-21.981867 18.568533-41.938489 43.303822-41.938489h286.606223z m437.134222 423.435378c22.687289 0 43.303822 17.976889 43.303822 41.938489v275.638044c0 21.959111-18.568533 41.938489-43.303822 41.938489H539.465956c-22.664533 0-43.303822-17.976889-43.303823-41.938489V577.604267c0-21.981867 18.568533-41.938489 43.303823-41.938489h284.558222z m-437.134222 0c22.687289 0 43.303822 17.976889 43.303822 41.938489v275.638044c0 21.959111-18.545778 41.938489-43.303822 41.938489H100.283733c-22.687289 0-43.303822-17.976889-43.303822-41.938489V577.604267c0-21.981867 18.568533-41.938489 43.303822-41.938489h286.606223z m0 0" fill="#3889FF" p-id="6888"></path><path d="M951.864889 188.120178L716.8 68.266667c-20.616533-11.992178-86.607644-4.004978-96.915911 17.976889l-109.272178 261.666133c-10.308267 19.979378-4.118756 45.943467 18.568533 57.912889l222.685867 123.835733c51.564089 19.979378 82.488889-2.002489 92.797156-21.959111l127.840711-235.702044c12.333511-21.959111 12.333511-67.902578-20.639289-83.876978z m0 0" fill="#B9F9DA" p-id="6889"></path><path d="M914.750578 200.112356L661.117156 70.269156c-20.616533-9.989689-47.422578-2.002489-57.730845 17.976888l-134.030222 245.691734c-10.308267 19.979378-2.070756 45.943467 18.568533 55.933155l253.610667 129.820445c20.616533 9.989689 47.422578 2.002489 57.730844-17.976889l134.030223-245.668978c10.308267-19.979378 2.070756-43.963733-18.545778-55.933155z m0 0" fill="#2FE39A" p-id="6890"></path></svg>