<?xml version="1.0" standalone="no"?><!DOCTYPE svg PUBLIC "-//W3C//DTD SVG 1.1//EN" "http://www.w3.org/Graphics/SVG/1.1/DTD/svg11.dtd"><svg t="1652952320798" class="icon" viewBox="0 0 1024 1024" version="1.1" xmlns="http://www.w3.org/2000/svg" p-id="16412" xmlns:xlink="http://www.w3.org/1999/xlink" width="200" height="200"><defs><style type="text/css">@font-face { font-family: feedback-iconfont; src: url("//at.alicdn.com/t/font_1031158_u69w8yhxdu.woff2?t=1630033759944") format("woff2"), url("//at.alicdn.com/t/font_1031158_u69w8yhxdu.woff?t=1630033759944") format("woff"), url("//at.alicdn.com/t/font_1031158_u69w8yhxdu.ttf?t=1630033759944") format("truetype"); }
</style></defs><path d="M512 512m-448 0a448 448 0 1 0 896 0 448 448 0 1 0-896 0Z" fill="#EA3A3A" p-id="16413"></path><path d="M448 256m32 0l64 0q32 0 32 32l0 256q0 32-32 32l-64 0q-32 0-32-32l0-256q0-32 32-32Z" fill="#FFFFFF" p-id="16414"></path><path d="M448 640m32 0l64 0q32 0 32 32l0 64q0 32-32 32l-64 0q-32 0-32-32l0-64q0-32 32-32Z" fill="#FFFFFF" p-id="16415"></path></svg>