<?xml version="1.0" standalone="no"?><!DOCTYPE svg PUBLIC "-//W3C//DTD SVG 1.1//EN" "http://www.w3.org/Graphics/SVG/1.1/DTD/svg11.dtd"><svg t="1652955662156" class="icon" viewBox="0 0 1024 1024" version="1.1" xmlns="http://www.w3.org/2000/svg" p-id="2996" xmlns:xlink="http://www.w3.org/1999/xlink" width="200" height="200"><defs><style type="text/css">@font-face { font-family: feedback-iconfont; src: url("//at.alicdn.com/t/font_1031158_u69w8yhxdu.woff2?t=1630033759944") format("woff2"), url("//at.alicdn.com/t/font_1031158_u69w8yhxdu.woff?t=1630033759944") format("woff"), url("//at.alicdn.com/t/font_1031158_u69w8yhxdu.ttf?t=1630033759944") format("truetype"); }
</style></defs><path d="M1008.72754619 417.61729174v188.76541652c0 14.20935695-11.51462336 25.7407386-25.74073862 25.74073859h-348.92442617v348.92442617c0 14.22611523-11.53138166 25.7407386-25.74073862 25.74073862h-188.76541645c-14.20935695 0-25.7407386-11.51462336-25.74073865-25.74073862V632.12344685h-348.92442615c-14.22611523 0-25.7407386-11.53138166-25.74073863-25.74073859V417.61729174c0-14.20935695 11.51462336-25.7407386 25.74073863-25.74073859h348.92442615V42.95212698c0-14.22611523 11.53138166-25.7407386 25.74073865-25.74073862h188.76541645c14.20935695 0 25.7407386 11.51462336 25.74073862 25.74073862v348.92442617h348.92442617c14.22611523 0 25.7407386 11.53138166 25.74073862 25.74073859z" fill="#19B06A" p-id="2997"></path></svg>