<?xml version="1.0" standalone="no"?><!DOCTYPE svg PUBLIC "-//W3C//DTD SVG 1.1//EN" "http://www.w3.org/Graphics/SVG/1.1/DTD/svg11.dtd"><svg t="1652778529424" class="icon" viewBox="0 0 1024 1024" version="1.1" xmlns="http://www.w3.org/2000/svg" p-id="13562" xmlns:xlink="http://www.w3.org/1999/xlink" width="200" height="200"><defs><style type="text/css">@font-face { font-family: feedback-iconfont; src: url("//at.alicdn.com/t/font_1031158_u69w8yhxdu.woff2?t=1630033759944") format("woff2"), url("//at.alicdn.com/t/font_1031158_u69w8yhxdu.woff?t=1630033759944") format("woff"), url("//at.alicdn.com/t/font_1031158_u69w8yhxdu.ttf?t=1630033759944") format("truetype"); }
</style></defs><path d="M384 256c-35.35 0-64 28.65-64 64s28.65 64 64 64 64-28.65 64-64-28.65-64-64-64z m0-64c70.69 0 128 57.31 128 128s-57.31 128-128 128-128-57.31-128-128 57.31-128 128-128z m0-64l-9.64 0.24c-98.11 4.82-176.37 83.17-182.06 178.95l-0.33 11.13 0.36 14.65a245.05 245.05 0 0 0 61.08 149.3l10.34 10.99L384 613.5l120.24-120.25c42.42-42.42 67.67-98.78 71.32-157.08l0.46-14.61-0.26-11.2c-4.82-98.11-83.17-176.37-180.46-182.04L384 128z m0-64c137.1 0 249.03 107.77 255.69 243.22L640 320c0 81.96-32.56 160.56-90.51 218.51L406.63 681.37c-12.5 12.5-32.76 12.5-45.25 0L218.51 538.51a309.004 309.004 0 0 1-90.08-202.17L128 320c0-137.1 107.77-249.03 243.22-255.69L384 64z m368 416c79.53 0 144 64.47 144 144 0 76.22-59.21 138.6-134.14 143.67L752 768H256c-35.35 0-64 28.65-64 64 0 32.82 24.71 59.87 56.54 63.57l7.46 0.43h608c17.67 0 32 14.33 32 32s-14.33 32-32 32H256c-70.69 0-128-57.31-128-128 0-67.48 52.22-122.76 118.45-127.65L256 704h496c44.18 0 80-35.82 80-80 0-41.42-31.48-75.49-71.82-79.59L752 544h-80c-17.67 0-32-14.33-32-32s14.33-32 32-32h80z" p-id="13563"></path></svg>