<?xml version="1.0" standalone="no"?><!DOCTYPE svg PUBLIC "-//W3C//DTD SVG 1.1//EN" "http://www.w3.org/Graphics/SVG/1.1/DTD/svg11.dtd"><svg t="1652783453186" class="icon" viewBox="0 0 1024 1024" version="1.1" xmlns="http://www.w3.org/2000/svg" p-id="1382" xmlns:xlink="http://www.w3.org/1999/xlink" width="200" height="200"><defs><style type="text/css">@font-face { font-family: feedback-iconfont; src: url("//at.alicdn.com/t/font_1031158_u69w8yhxdu.woff2?t=1630033759944") format("woff2"), url("//at.alicdn.com/t/font_1031158_u69w8yhxdu.woff?t=1630033759944") format("woff"), url("//at.alicdn.com/t/font_1031158_u69w8yhxdu.ttf?t=1630033759944") format("truetype"); }
</style></defs><path d="M635.136 336.896c-34.816-24.576-77.312-38.912-123.136-38.912-118.016 0-213.504 95.488-213.504 213.504 0 45.824 14.336 88.32 38.912 123.136l297.728-297.728zM388.864 686.08c34.816 24.576 77.312 38.912 123.136 38.912 118.016 0 213.504-95.488 213.504-213.504 0-45.824-14.336-88.32-38.912-123.136L388.864 686.08z" fill="#C30D23" p-id="1383"></path><path d="M512 0C229.12 0 0.512 228.608 0.512 511.488 0.512 794.368 229.12 1022.976 512 1022.976c282.88 0 511.488-228.608 511.488-511.488C1023.488 228.608 794.88 0 512 0z m0 792.064c-155.136 0-280.832-125.696-280.832-280.832S356.864 230.656 512 230.656s280.832 125.696 280.832 280.832S667.136 792.064 512 792.064z" fill="#C30D23" p-id="1384"></path></svg>