<?xml version="1.0" standalone="no"?><!DOCTYPE svg PUBLIC "-//W3C//DTD SVG 1.1//EN" "http://www.w3.org/Graphics/SVG/1.1/DTD/svg11.dtd"><svg t="1652778794439" class="icon" viewBox="0 0 1024 1024" version="1.1" xmlns="http://www.w3.org/2000/svg" p-id="14984" xmlns:xlink="http://www.w3.org/1999/xlink" width="200" height="200"><defs><style type="text/css">@font-face { font-family: feedback-iconfont; src: url("//at.alicdn.com/t/font_1031158_u69w8yhxdu.woff2?t=1630033759944") format("woff2"), url("//at.alicdn.com/t/font_1031158_u69w8yhxdu.woff?t=1630033759944") format("woff"), url("//at.alicdn.com/t/font_1031158_u69w8yhxdu.ttf?t=1630033759944") format("truetype"); }
</style></defs><path d="M512 64a307.2 307.2 0 0 1 307.2 307.2c0 146.56-82.944 231.04-169.6 312.64l-24.832 23.296c-21.12 19.84-41.984 39.808-61.44 60.864H800a96 96 0 0 1 9.216 191.552L800 960h-640a32 32 0 0 1-5.76-63.488L160 896h640a32 32 0 0 0 5.76-63.488L800 832h-512A160 160 0 0 1 128 672a32 32 0 1 1 64 0 96 96 0 0 0 86.784 95.552L288 768h172.736c-19.52-21.056-40.384-41.024-61.44-60.864l-24.832-23.296C287.744 602.24 204.8 517.76 204.8 371.2A307.2 307.2 0 0 1 512 64z m0 64a255.296 255.296 0 0 0-179.2 73.216V179.2l-0.384-4.608A25.6 25.6 0 0 0 281.6 179.2v102.4l0.384 4.48a25.6 25.6 0 0 0 31.424 20.352l102.4-25.6 4.352-1.536a25.6 25.6 0 0 0 14.272-29.504l-1.536-4.352a25.6 25.6 0 0 0-29.504-14.272l-37.44 9.28A204.8 204.8 0 1 1 307.2 384 25.6 25.6 0 1 0 256 384a256 256 0 1 0 256-256z m0 76.8a25.6 25.6 0 0 0-25.6 25.6V384l0.32 4.032a25.6 25.6 0 0 0 7.168 14.08l102.4 102.4 3.584 2.944a25.6 25.6 0 0 0 32.64-2.944l2.944-3.584a25.6 25.6 0 0 0-2.944-32.64L537.6 373.376V230.4l-0.384-4.608A25.6 25.6 0 0 0 512 204.8z" p-id="14985"></path></svg>