<?xml version="1.0" standalone="no"?><!DOCTYPE svg PUBLIC "-//W3C//DTD SVG 1.1//EN" "http://www.w3.org/Graphics/SVG/1.1/DTD/svg11.dtd"><svg t="1652780303880" class="icon" viewBox="0 0 1024 1024" version="1.1" xmlns="http://www.w3.org/2000/svg" p-id="5597" xmlns:xlink="http://www.w3.org/1999/xlink" width="200" height="200"><defs><style type="text/css">@font-face { font-family: feedback-iconfont; src: url("//at.alicdn.com/t/font_1031158_u69w8yhxdu.woff2?t=1630033759944") format("woff2"), url("//at.alicdn.com/t/font_1031158_u69w8yhxdu.woff?t=1630033759944") format("woff"), url("//at.alicdn.com/t/font_1031158_u69w8yhxdu.ttf?t=1630033759944") format("truetype"); }
</style></defs><path d="M315.900059 49.300295h398.39988c12.199996 0 24.399993-12.199996 24.399992-24.399993S726.499935 0.40031 714.299939 0.40031H315.900059c-12.199996 0-24.499993 12.199996-24.499992 24.399992-0.1 12.299996 5.999998 24.499993 24.499992 24.499993z" fill="#383838" p-id="5598"></path><path d="M953.299866 5.500308H824.599905c-12.199996 0-24.399993 12.199996-24.399992 24.399993s12.199996 24.499993 24.399992 24.499993h128.599961v920.299721H70.700134V48.900295h128.599961c12.199996 0 24.499993-12.199996 24.499992-24.399992S217.700089 0.00031 199.300095 0.00031H70.700134c-24.599993-0.1-48.999985 24.299993-48.999986 48.899985V975.000015c0 24.499993 24.499993 48.999985 48.999986 48.999985h882.599732c24.399993 0 48.999985-24.499993 48.999986-48.999985V54.600293c0-24.599993-24.599993-49.099985-48.999986-49.099985z" fill="#383838" p-id="5599"></path><path d="M591.999976 788.200071l45.199986-194.299941h-82.099975l-48.899985 194.299941zM332.400054 486.400163h-68.799979l-19.799994 283.999914h70.799979z" fill="#383838" p-id="5600"></path><path d="M336.400053 798.100068h79.899976V457.300172H478.00001l27.799992-66.49998h-89.699973v-61.499982l69.699979-8.799997L503.000003 250.000234l-251.999924 23.599993v71.699978l85.399974-9.399997v54.699984h-87.999973v66.69998h87.999973zM599.799973 254.600233h-80.199975l28.899991 84.399974h81.799975z" fill="#383838" p-id="5601"></path><path d="M434.000024 769.600077h68.299979l-16.399995-281.999915h-67.09998zM656.099956 339.000207h80.399976l29.999991-84.399974h-80.699976zM771.999921 573.800136V363.2002H515.599999v210.699936H646.999959v215.599935h133.19996v-62.999981h-53.299984V573.800136H771.999921zM595.799975 426.700181h94.699971V510.000156h-94.699971v-83.299975z" fill="#383838" p-id="5602"></path></svg>