<?xml version="1.0" standalone="no"?><!DOCTYPE svg PUBLIC "-//W3C//DTD SVG 1.1//EN" "http://www.w3.org/Graphics/SVG/1.1/DTD/svg11.dtd"><svg t="1653298731936" class="icon" viewBox="0 0 1024 1024" version="1.1" xmlns="http://www.w3.org/2000/svg" p-id="3028" xmlns:xlink="http://www.w3.org/1999/xlink" width="200" height="200"><defs><style type="text/css">@font-face { font-family: feedback-iconfont; src: url("//at.alicdn.com/t/font_1031158_u69w8yhxdu.woff2?t=1630033759944") format("woff2"), url("//at.alicdn.com/t/font_1031158_u69w8yhxdu.woff?t=1630033759944") format("woff"), url("//at.alicdn.com/t/font_1031158_u69w8yhxdu.ttf?t=1630033759944") format("truetype"); }
</style></defs><path d="M185.6 675.9c43.8-83.5 76.1-171.5 96.9-264h-82.3v-51h90.9v-108c-26.5 2.5-54.2 5-82.9 7.5-2.2-18.5-5.5-36-10-52.5 81.4-4.5 155.7-12.5 222.9-24l10.6 51c-28.8 4.5-60.1 8.8-94.2 12.8V361h88.2v51h-88.2v66.8L366 457c22.1 34.5 43.3 70.5 63.7 108l-41.1 30c-16.4-34.5-33.4-67.3-51.1-98.3V877h-46.4V520c-21.7 83-49.1 156.5-82.3 220.5-7.1-21.1-14.8-42.6-23.2-64.6z m262-389.3h354.9v300.8h-49.1v-27.8H693v205.5c0 28 10.8 42 32.5 42h21.2c21.7 0 33.8-13.5 36.5-40.5 2.2-27 4-59.3 5.3-96.8 13.7 7 30.3 15 49.8 24-3.1 39-6.4 72-9.9 99-6.2 46-30.1 69-71.7 69h-45.1c-45.1 0-67.7-28.5-67.7-85.5V559.6h-54.4c-1.3 148-56.4 254.3-165.2 318.8-8.4-16.5-19-33.8-31.8-51.8 97.7-52 147.1-141 147.9-267h-43.8v27.8h-49.1V286.6z m27.9-112.5l41.8-26.3c25.6 34 48.2 67.5 67.7 100.5l-45.1 30.8c-18.2-34.5-39.6-69.5-64.4-105z m278 165H496.7v168h256.7v-168z m15.9-167.2c-21.2 36.5-44.7 73.5-70.3 111L656 253.6c30.5-40.5 53.3-76.5 68.3-108l45.1 26.3z" p-id="3029"></path><path d="M424.4 889c-1 0-2-0.1-3-0.4-2.8-0.8-5.2-2.8-6.5-5.4-8.1-15.9-18.6-32.9-31-50.4-1.8-2.5-2.4-5.6-1.7-8.6s2.7-5.5 5.4-7c92.1-49 138.6-129.8 142.1-246.9h-22.3v17.1c0 5.9-4.8 10.7-10.7 10.7h-49.1c-5.9 0-10.7-4.8-10.7-10.7v-14.7c-0.3 0.3-0.6 0.5-1 0.8l-41.1 30c-2.6 1.9-5.8 2.5-8.9 1.7-3.1-0.8-5.6-2.9-7-5.8-10-21-20.3-41.5-30.8-61.3v338.8c0 5.9-4.8 10.7-10.7 10.7H291c-5.9 0-10.7-4.8-10.7-10.7V594.5c-17.9 55-38.7 105.5-62.1 150.8-2 3.8-6.1 6.4-10.3 5.7-4.3-0.3-7.9-3.2-9.3-7.2-7-20.9-14.7-42.2-23.1-64.1-1.1-2.9-0.9-6.1 0.5-8.8 41.1-78.3 72.3-161.8 92.9-248.4H200c-5.9 0-10.7-4.8-10.7-10.7v-51c0-5.9 4.8-10.7 10.7-10.7h80.2v-85.6c-23 2.1-46.8 4.3-71.3 6.4-5.6 0.3-10.8-3.6-11.5-9.4-2.1-18-5.4-35.1-9.7-51-0.8-3.1-0.2-6.4 1.7-9 1.9-2.6 4.8-4.2 8-4.4 80.6-4.5 155.2-12.5 221.7-23.9 5.8-1 11.1 2.7 12.3 8.4l10.6 51c0.6 2.9 0 5.8-1.7 8.2-1.7 2.4-4.2 4-7.1 4.5-26.1 4.1-54.7 8-85.2 11.7v93.1h77.6c5.9 0 10.7 4.8 10.7 10.7v51c0 5.9-4.8 10.7-10.7 10.7H348V457l11.4-8.7c2.4-1.8 5.4-2.5 8.3-2 2.9 0.5 5.5 2.2 7.1 4.8 21.4 33.4 42.2 68.6 62 104.8V286.6c0-5.9 4.8-10.7 10.7-10.7h78.4c-16.9-31.4-36.9-63.5-59.3-95.7-1.7-2.4-2.3-5.4-1.7-8.2 0.6-2.9 2.3-5.4 4.8-6.9l41.8-26.3c4.7-3 10.9-1.8 14.2 2.6 25.8 34.2 48.8 68.4 68.3 101.5 2.9 4.8 1.5 11.1-3.2 14.2L563.4 276h106.4L650 262.5c-2.4-1.6-4.1-4.2-4.5-7.1s0.2-5.8 2-8.2c29.9-39.8 52.6-75.5 67.2-106.2 1.3-2.7 3.6-4.7 6.5-5.6 2.9-0.9 5.9-0.5 8.5 1l45.1 26.3c5.1 3 6.8 9.5 3.9 14.6-18.8 32.4-39.6 65.5-62 98.7h85.9c5.9 0 10.7 4.8 10.7 10.7v300.8c0 5.9-4.8 10.7-10.7 10.7h-49.1c-5.9 0-10.7-4.8-10.7-10.7v-17.1h-39v194.8c0 31.3 14.8 31.3 21.8 31.3h21.2c11.3 0 23.2-3.7 25.9-30.9 2.2-26.6 3.9-59 5.3-96.1 0.1-3.6 2.1-7 5.3-8.8 3.1-1.8 7-2 10.3-0.3 13.6 6.9 30.1 14.9 49.4 23.8 4.1 1.9 6.5 6.1 6.2 10.5-3.1 39.1-6.5 72.5-10 99.5-8.7 64.7-49.5 78.3-82.2 78.3h-45.1c-35.7 0-78.3-16.7-78.3-96.2v-206h-33.3c-3.9 145.9-61.1 252.6-170.2 317.3-1.9 0.9-3.8 1.4-5.7 1.4z m-122.6-22.8h25.1V496.6c0-3.7 1.9-7.1 4.9-9-3.1-1.9-4.9-5.3-4.9-9v-66.8c0-5.9 4.8-10.7 10.7-10.7h77.6v-29.7h-77.6c-5.9 0-10.7-4.8-10.7-10.7V247.6c0-5.4 4.1-10 9.4-10.6 29.4-3.5 57.2-7.2 82.7-11l-6.2-30c-61.1 10-128.6 17.3-201.1 21.7 2.3 10 4.2 20.4 5.8 31.1 25.1-2.2 49.3-4.4 72.7-6.6 3-0.2 6 0.7 8.2 2.7 2.2 2 3.5 4.9 3.5 7.9v108c0 5.9-4.8 10.7-10.7 10.7H211v29.7h71.6c3.2 0 6.3 1.5 8.3 4 2 2.5 2.8 5.9 2.1 9-20.6 91.4-52.7 179.7-95.6 262.4 4.6 12.3 9.1 24.4 13.3 36.3 27.7-57.7 51.3-123.4 70.2-195.7 1.3-5.2 6.4-8.8 11.7-7.9 5.3 0.7 9.3 5.2 9.3 10.6v346.3z m106.3-36c7.7 11.3 14.5 22.4 20.4 33.1 98.6-62.8 149.2-164.9 150.4-303.8 0.1-5.9 4.8-10.6 10.7-10.6H644c5.9 0 10.7 4.8 10.7 10.7v216.8c0 67.1 32.5 74.8 57 74.8h45.1c36.2 0 55.6-19 61.1-59.8 3.3-24.9 6.4-55.5 9.3-91-10.4-4.8-19.9-9.4-28.5-13.6-1.2 30.6-2.8 57.6-4.7 80.7-4.3 43.8-31.4 50.3-47.1 50.3h-21.2c-16.1 0-43.2-6.8-43.2-52.7V559.6c0-5.9 4.8-10.7 10.7-10.7h60.4c5.9 0 10.7 4.8 10.7 10.7v17.1h27.8V297.3H458.3v279.4h27.8v-17.1c0-5.9 4.8-10.7 10.7-10.7h43.8c2.8 0 5.6 1.1 7.6 3.1s3.1 4.8 3.1 7.6c-1 125.2-49.1 216.1-143.2 270.6z m-64.8-342.6c1.4 0.9 2.7 2.2 3.5 3.7 15.7 27.5 31.1 56.9 45.9 87.4l23.2-16.9c-16.9-30.7-34.5-60.7-52.6-89.4L344 487.1c-0.2 0.2-0.5 0.4-0.7 0.5z m327.9-236.5l25.1 17c21-31 40.6-62 58.5-92.4l-26-15.1c-13.9 27.1-33.3 57.4-57.6 90.5z m-180.6-73.9c19.8 29 37.6 58 53 86.4l27-18.4c-16.5-27.2-35.3-55.1-56-83.1l-24 15.1z m262.9 340.6H496.7c-5.9 0-10.7-4.8-10.7-10.7v-168c0-5.9 4.8-10.7 10.7-10.7h256.7c5.9 0 10.7 4.8 10.7 10.7v168c0 5.9-4.7 10.7-10.6 10.7z m-246.1-21.3h235.4V349.8H507.4v146.7z" p-id="3030"></path></svg>