<?xml version="1.0" standalone="no"?><!DOCTYPE svg PUBLIC "-//W3C//DTD SVG 1.1//EN" "http://www.w3.org/Graphics/SVG/1.1/DTD/svg11.dtd"><svg t="1652782917821" class="icon" viewBox="0 0 1024 1024" version="1.1" xmlns="http://www.w3.org/2000/svg" p-id="9493" xmlns:xlink="http://www.w3.org/1999/xlink" width="200" height="200"><defs><style type="text/css">@font-face { font-family: feedback-iconfont; src: url("//at.alicdn.com/t/font_1031158_u69w8yhxdu.woff2?t=1630033759944") format("woff2"), url("//at.alicdn.com/t/font_1031158_u69w8yhxdu.woff?t=1630033759944") format("woff"), url("//at.alicdn.com/t/font_1031158_u69w8yhxdu.ttf?t=1630033759944") format("truetype"); }
</style></defs><path d="M766.5 525.3c-88.2 0-159.7 71.5-159.7 159.7 0 106.5 159.7 266.2 159.7 266.2S926.2 791.5 926.2 685c0-88.2-71.5-159.7-159.7-159.7z m0 213c-29.4 0-53.2-23.8-53.2-53.2s23.8-53.2 53.2-53.2 53.2 23.8 53.2 53.2-23.8 53.2-53.2 53.2z m0-267.7c28.2 0 55.2 5.6 79.9 15.7v-307c0-58.8-47.7-106.5-106.5-106.5H207.4c-58.8 0-106.5 47.7-106.5 106.5v532.4c0 58.8 47.7 106.5 106.5 106.5h388.3c-28.1-50-42.2-94.6-42.2-133 0-118.4 95.5-214.6 213-214.6zM247.3 205.9h452.6c22.1 0 39.9 17.9 39.9 39.9 0 22.1-17.9 39.9-39.9 39.9H247.3c-22.1 0-39.9-17.9-39.9-39.9 0-22.1 17.9-39.9 39.9-39.9z m0 159.7h319.5c22.1 0 39.9 17.9 39.9 39.9 0 22.1-17.9 39.9-39.9 39.9H247.3c-22.1 0-39.9-17.9-39.9-39.9s17.9-39.9 39.9-39.9z m186.4 239.6H247.3c-22.1 0-39.9-17.9-39.9-39.9 0-22.1 17.9-39.9 39.9-39.9h186.4c22.1 0 39.9 17.9 39.9 39.9s-17.9 39.9-39.9 39.9z" p-id="9494"></path></svg>