<?xml version="1.0" standalone="no"?><!DOCTYPE svg PUBLIC "-//W3C//DTD SVG 1.1//EN" "http://www.w3.org/Graphics/SVG/1.1/DTD/svg11.dtd"><svg t="1652778647653" class="icon" viewBox="0 0 1024 1024" version="1.1" xmlns="http://www.w3.org/2000/svg" p-id="14699" xmlns:xlink="http://www.w3.org/1999/xlink" width="200" height="200"><defs><style type="text/css">@font-face { font-family: feedback-iconfont; src: url("//at.alicdn.com/t/font_1031158_u69w8yhxdu.woff2?t=1630033759944") format("woff2"), url("//at.alicdn.com/t/font_1031158_u69w8yhxdu.woff?t=1630033759944") format("woff"), url("//at.alicdn.com/t/font_1031158_u69w8yhxdu.ttf?t=1630033759944") format("truetype"); }
</style></defs><path d="M656.416 350.272c5.248 7.776 10.592 15.456 15.776 23.232l0.64 0.32c6.336-10.016 12.48-20 18.784-30.048 9.76-14.592 20.416-26.016 26.112-45.184 11.232-37.12-15.328-64.64-50.4-64-2.464 0.384-4.896 0.864-7.488 1.28a46.144 46.144 0 0 0-21.952 13.856 68.032 68.032 0 0 0-10.72 16.832c-6.56 16.448-1.44 35.392 5.6 46.848l23.648 36.864z m-7.456-72.704c3.52-11.2 11.008-13.44 21.632-17.824 33.632-0.512 34.208 47.04 3.2 51.744-15.776 2.432-29.952-17.632-24.832-33.92z m-350.272 271.36c19.488-27.328 37.952-48.864 49.44-85.312 25.568-81.472-26.336-148.32-105.984-146.944-6.176 2.496-15.456 1.6-21.632 3.552-18.528 5.792-36.256 16.736-47.136 30.4-9.472 11.84-18.112 23.552-24.224 39.104-14.176 36.48-3.84 74.976 11.968 100.768 18.24 29.952 36.896 59.2 56.832 87.552 10.56 15.552 21.088 31.2 31.648 46.784l0.96 0.64c6.624-10.624 13.152-21.344 19.712-32 9.44-14.976 18.176-30.24 28.416-44.544z m-101.088-136.608c5.248-16.704 17.6-29.856 33.248-36.096 4.928-2.016 10.976-1.504 16.544-3.52 36.8-0.32 68 37.12 52.576 76.768-7.552 19.648-22.304 33.376-45.856 37.12-36.032 5.824-67.808-38.144-56.512-74.272z m486.528 109.536c-27.04-17.728-54.08-35.296-81.12-52.992-9.248-6.4-18.528-12.704-27.808-19.104-18.4-10.016-36.608-20.032-54.912-30.048-9.824-5.76-21.344-10.592-29.12-18.464l-0.64-0.32c36.608-7.552 74.752-8.096 113.12-14.496 19.712-2.24 39.424-4.48 59.232-6.816v-0.32c-3.04-4.064-11.648-15.648-15.808-17.792l-14.848 1.28-53.6 3.2c-14.016 2.144-28.288 0.32-43.008 2.592-41.44 3.936-82.944 7.68-124.416 11.52 18.752 14.368 37.536 28.864 56.192 43.264 20.032 13.312 41.664 23.904 61.088 37.76 24.704 19.296 49.6 38.592 74.304 57.76l0.672 0.96c-59.712 3.744-119.328 7.584-179.04 11.328l-36.16 1.568c-14.688 2.24-28.352 2.88-41.984 5.568l-19.744 2.848c-19.488 32.832-39.04 65.696-58.4 98.528l-0.672 0.928c66.176-14.56 134.656-25.568 201.984-40.384 36.352-6.528 72.768-12.928 109.184-19.392 51.584-8.8 103.232-17.696 154.72-26.496v-0.288c-16.448-10.688-32.736-21.44-49.216-32.192z" p-id="14700"></path><path d="M1015.584 1014.336c-10.048 10.016-23.488 10.016-30.176 0l-197.76-197.824 30.176-30.112 197.76 194.4a30.528 30.528 0 0 1 0 33.536z m-563.072-113.984c-248 0-449.088-201.088-449.088-449.088S204.512 2.144 452.512 2.144s449.088 201.088 449.088 449.088-201.088 449.12-449.088 449.12z m0-851.264c-224.544 0-402.176 180.96-402.176 402.176 0 224.576 180.992 405.536 402.176 405.536a404.8 404.8 0 0 0 405.568-405.536c-0.032-224.544-180.992-402.176-405.568-402.176z" p-id="14701"></path></svg>