<?xml version="1.0" standalone="no"?><!DOCTYPE svg PUBLIC "-//W3C//DTD SVG 1.1//EN" "http://www.w3.org/Graphics/SVG/1.1/DTD/svg11.dtd"><svg t="1652778505752" class="icon" viewBox="0 0 1024 1024" version="1.1" xmlns="http://www.w3.org/2000/svg" p-id="13408" xmlns:xlink="http://www.w3.org/1999/xlink" width="200" height="200"><defs><style type="text/css">@font-face { font-family: feedback-iconfont; src: url("//at.alicdn.com/t/font_1031158_u69w8yhxdu.woff2?t=1630033759944") format("woff2"), url("//at.alicdn.com/t/font_1031158_u69w8yhxdu.woff?t=1630033759944") format("woff"), url("//at.alicdn.com/t/font_1031158_u69w8yhxdu.ttf?t=1630033759944") format("truetype"); }
</style></defs><path d="M511.3 458.6c-64.9 0-117.7-52.8-117.7-117.7s52.8-117.7 117.7-117.7S629 276 629 340.9s-52.8 117.7-117.7 117.7z m0-171.3c-29.6 0-53.7 24.1-53.7 53.7s24.1 53.7 53.7 53.7S565 370.5 565 341c0-29.6-24.1-53.7-53.7-53.7z" p-id="13409"></path><path d="M514 807.9l-25.1-30.6c-2.1-2.6-52.8-64.4-107.2-144.4C307.1 523.3 264 436.3 253.5 374.1c-6.7-39.6-4.7-78.8 5.9-116.5 10.2-36 27.6-68.9 52-97.7 50.3-59.6 124.1-93.8 202.3-93.8 40.7 0 79.8 9 116.4 26.7 34.9 16.9 66.3 41.7 90.6 71.6 23.5 28.8 40 61.3 49.1 96.6 9.7 37.3 10.5 75.7 2.5 114.2-12.8 61.6-56.2 148.2-129.2 257.4-53.4 79.9-102.4 141.6-104.5 144.2L514 807.9z m-0.4-677.7c-59.3 0-115.2 25.9-153.4 71.1-18.4 21.7-31.6 46.5-39.2 73.7-8.1 28.5-9.5 58.3-4.4 88.4 6.2 36.4 31.7 106.5 118.1 233.5 29.8 43.8 58.9 82.5 78.6 108 19.3-25.6 47.7-64.4 76.9-108.2C657.4 496.1 698.7 415 709.7 362.3c11.7-56.5-2-112.4-38.6-157.4-18.5-22.7-42.3-41.5-68.9-54.4-27.9-13.5-57.7-20.3-88.6-20.3z" p-id="13410"></path><path d="M863.1 955.4H383.6v-64h479.5c17.9 0 32.4-14.5 32.4-32.4 0-18.7-15.3-34-34-34H181c-30.9 0-60-12.1-81.9-34-21.9-21.9-33.9-51-33.8-82 0.1-63.8 52.2-115.8 116-115.8H281v64h-99.7c-28.6 0-51.9 23.3-52 51.9 0 13.8 5.3 26.8 15.1 36.6S167.2 761 181 761h680.5c54 0 98 44 98 98 0 53.2-43.3 96.4-96.4 96.4z" p-id="13411"></path></svg>