<?xml version="1.0" standalone="no"?><!DOCTYPE svg PUBLIC "-//W3C//DTD SVG 1.1//EN" "http://www.w3.org/Graphics/SVG/1.1/DTD/svg11.dtd"><svg t="1654157092769" class="icon" viewBox="0 0 1024 1024" version="1.1" xmlns="http://www.w3.org/2000/svg" p-id="6149" xmlns:xlink="http://www.w3.org/1999/xlink" width="200" height="200"><defs><style type="text/css">@font-face { font-family: feedback-iconfont; src: url("//at.alicdn.com/t/font_1031158_u69w8yhxdu.woff2?t=1630033759944") format("woff2"), url("//at.alicdn.com/t/font_1031158_u69w8yhxdu.woff?t=1630033759944") format("woff"), url("//at.alicdn.com/t/font_1031158_u69w8yhxdu.ttf?t=1630033759944") format("truetype"); }
</style></defs><path d="M768 128c16.954 0 32.986 6.696 45.145 18.855C825.304 159.014 832 175.046 832 192v640c0 16.954-6.696 32.986-18.855 45.145C800.986 889.304 784.954 896 768 896H256c-16.954 0-32.986-6.696-45.145-18.855C198.696 864.986 192 848.954 192 832V192c0-16.954 6.696-32.986 18.855-45.145C223.014 134.696 239.046 128 256 128h512m0-64H256c-70.4 0-128 57.6-128 128v640c0 70.4 57.6 128 128 128h512c70.4 0 128-57.6 128-128V192c0-70.4-57.6-128-128-128z" p-id="6150"></path><path d="M608 320H320c-17.6 0-32-14.4-32-32s14.4-32 32-32h288c17.6 0 32 14.4 32 32s-14.4 32-32 32zM608 544H320c-17.6 0-32-14.4-32-32s14.4-32 32-32h288c17.6 0 32 14.4 32 32s-14.4 32-32 32zM704 768H320c-17.6 0-32-14.4-32-32s14.4-32 32-32h384c17.6 0 32 14.4 32 32s-14.4 32-32 32z" p-id="6151"></path><path d="M681.627 758.882l-96.51-96.51c-12.445-12.445-12.445-32.81 0-45.255s32.81-12.445 45.255 0l96.51 96.51c12.445 12.445 12.445 32.81 0 45.255s-32.809 12.445-45.255 0z" p-id="6152"></path></svg>