<?xml version="1.0" standalone="no"?><!DOCTYPE svg PUBLIC "-//W3C//DTD SVG 1.1//EN" "http://www.w3.org/Graphics/SVG/1.1/DTD/svg11.dtd"><svg t="1654157210816" class="icon" viewBox="0 0 1024 1024" version="1.1" xmlns="http://www.w3.org/2000/svg" p-id="7131" xmlns:xlink="http://www.w3.org/1999/xlink" width="200" height="200"><defs><style type="text/css">@font-face { font-family: feedback-iconfont; src: url("//at.alicdn.com/t/font_1031158_u69w8yhxdu.woff2?t=1630033759944") format("woff2"), url("//at.alicdn.com/t/font_1031158_u69w8yhxdu.woff?t=1630033759944") format("woff"), url("//at.alicdn.com/t/font_1031158_u69w8yhxdu.ttf?t=1630033759944") format("truetype"); }
</style></defs><path d="M85.333333 468.949333l-2.218666-0.042666-1.92-0.128a42.709333 42.709333 0 0 1-3.370667-0.469334l-1.749333-0.341333a26.368 26.368 0 0 1-2.474667-0.64l-2.474667-0.768a42.88 42.88 0 0 1-16.896-11.050667l3.370667 3.2a55.168 55.168 0 0 1-3.242667-3.072l-0.426666-0.469333a44.373333 44.373333 0 0 1-7.509334-11.349333l-1.066666-2.517334-0.768-2.176-0.682667-2.432a28.288 28.288 0 0 1-0.554667-2.602666l-0.341333-2.133334A49.450667 49.450667 0 0 1 42.666667 426.282667l0.085333 3.029333a51.285333 51.285333 0 0 1-0.085333-2.56V170.282667a42.666667 42.666667 0 0 1 85.333333 0v157.354666l125.141333-117.589333a426.666667 426.666667 0 0 1 496.469334-77.525333l11.392 6.101333a426.709333 426.709333 0 0 1-181.888 799.402667 426.666667 426.666667 0 0 1-426.922667-284.202667 42.624 42.624 0 1 1 80.469333-28.330667 341.290667 341.290667 0 0 0 654.762667-37.717333 341.333333 341.333333 0 0 0-167.68-374.485333A341.717333 341.717333 0 0 0 312.533333 271.36L193.024 383.573333 341.333333 383.616a42.666667 42.666667 0 0 1 42.368 37.674667L384 426.282667a42.666667 42.666667 0 0 1-42.666667 42.666666H85.333333z" p-id="7132"></path></svg>