<?xml version="1.0" standalone="no"?><!DOCTYPE svg PUBLIC "-//W3C//DTD SVG 1.1//EN" "http://www.w3.org/Graphics/SVG/1.1/DTD/svg11.dtd"><svg t="1653375918666" class="icon" viewBox="0 0 1024 1024" version="1.1" xmlns="http://www.w3.org/2000/svg" p-id="6522" xmlns:xlink="http://www.w3.org/1999/xlink" width="200" height="200"><defs><style type="text/css">@font-face { font-family: feedback-iconfont; src: url("//at.alicdn.com/t/font_1031158_u69w8yhxdu.woff2?t=1630033759944") format("woff2"), url("//at.alicdn.com/t/font_1031158_u69w8yhxdu.woff?t=1630033759944") format("woff"), url("//at.alicdn.com/t/font_1031158_u69w8yhxdu.ttf?t=1630033759944") format("truetype"); }
</style></defs><path d="M801.792 0c32.768 0 63.488 14.336 84.992 39.936l6.144 9.216L1013.76 230.4l3.072 5.12 3.072 6.144c4.096 15.36 5.12 67.584 4.096 305.152 0 20.48-16.384 36.864-36.864 36.864s-36.864-16.384-36.864-36.864v-256H72.704v549.888c0 56.32 43.008 103.424 99.328 109.568l10.24 1.024 439.296-1.024c19.456 0 34.816 14.336 36.864 32.768 2.048 18.432-11.264 35.84-29.696 38.912l-6.144 1.024-440.32 1.024C86.016 1024 7.168 949.248 0 852.992V277.504c0-18.432 4.096-35.84 13.312-51.2l5.12-9.216 112.64-167.936C149.504 21.504 179.2 4.096 210.944 1.024l11.264-1.024h579.584zM655.36 828.416c13.312 13.312 14.336 33.792 3.072 48.128l-3.072 3.072c-13.312 13.312-33.792 14.336-48.128 3.072l-3.072-3.072-153.6-160.768c-13.312-13.312-14.336-33.792-3.072-48.128l3.072-3.072 156.672-156.672c13.312-13.312 35.84-14.336 50.176-2.048 14.336 13.312 16.384 34.816 5.12 50.176l-3.072 3.072-96.256 95.232h350.208c58.368 0 106.496 45.056 109.568 103.424v152.576c0 58.368-45.056 106.496-103.424 109.568H768c-19.456 0-35.84-15.36-36.864-34.816-1.024-19.456 13.312-36.864 32.768-38.912H914.432c18.432 0 33.792-14.336 35.84-32.768V766.976c0-18.432-14.336-33.792-32.768-36.864H562.176l93.184 98.304zM801.792 72.704H222.208c-9.216 0-19.456 4.096-25.6 10.24l-4.096 5.12-86.016 129.024h813.056L832.512 89.088c-5.12-8.192-13.312-13.312-23.552-15.36l-7.168-1.024z m0 0" p-id="6523"></path></svg>