<?xml version="1.0" standalone="no"?><!DOCTYPE svg PUBLIC "-//W3C//DTD SVG 1.1//EN" "http://www.w3.org/Graphics/SVG/1.1/DTD/svg11.dtd"><svg t="1653301666962" class="icon" viewBox="0 0 1024 1024" version="1.1" xmlns="http://www.w3.org/2000/svg" p-id="3650" xmlns:xlink="http://www.w3.org/1999/xlink" width="200" height="200"><defs><style type="text/css">@font-face { font-family: feedback-iconfont; src: url("//at.alicdn.com/t/font_1031158_u69w8yhxdu.woff2?t=1630033759944") format("woff2"), url("//at.alicdn.com/t/font_1031158_u69w8yhxdu.woff?t=1630033759944") format("woff"), url("//at.alicdn.com/t/font_1031158_u69w8yhxdu.ttf?t=1630033759944") format("truetype"); }
</style></defs><path d="M825.196342 70.545195h-626.392684c-45.854377 0-83.316308 37.461931-83.316308 83.316309v716.398622c0 45.854377 37.461931 83.316308 83.316308 83.316308h626.392684c45.854377 0 83.316308-37.461931 83.316308-83.316308v-716.398622c0-45.854377-37.583561-83.316308-83.316308-83.316309zM503.729184 793.998337c-44.029932 0-76.261789-30.042523-76.261789-72.612899s32.231857-71.883122 76.261789-71.883122 76.261789 29.312745 76.261789 71.883122-32.231857 72.612899-76.261789 72.612899z m46.949044-195.093954h-94.627866c-16.176743-118.102387 114.453498-145.225799 114.453498-218.568476 0-39.651265-24.934078-63.125787-66.774676-63.125787-35.272598 0-63.855565 15.446965-91.708754 46.219266L351.935384 307.723007c41.110821-46.949044 96.087421-77.721345 163.591876-77.721344 91.708754 0 158.48343 47.678822 158.48343 140.847131-0.12163 110.682979-134.279131 123.940611-123.332462 228.055589z" p-id="3651"></path></svg>