<?xml version="1.0" standalone="no"?><!DOCTYPE svg PUBLIC "-//W3C//DTD SVG 1.1//EN" "http://www.w3.org/Graphics/SVG/1.1/DTD/svg11.dtd"><svg t="1652779066745" class="icon" viewBox="0 0 1024 1024" version="1.1" xmlns="http://www.w3.org/2000/svg" p-id="26489" xmlns:xlink="http://www.w3.org/1999/xlink" width="200" height="200"><defs><style type="text/css">@font-face { font-family: feedback-iconfont; src: url("//at.alicdn.com/t/font_1031158_u69w8yhxdu.woff2?t=1630033759944") format("woff2"), url("//at.alicdn.com/t/font_1031158_u69w8yhxdu.woff?t=1630033759944") format("woff"), url("//at.alicdn.com/t/font_1031158_u69w8yhxdu.ttf?t=1630033759944") format("truetype"); }
</style></defs><path d="M886.962087 726.26087C886.962087 701.662609 858.935652 681.73913 824.342261 681.73913 789.77113 681.73913 761.744696 701.662609 761.744696 726.26087 761.744696 732.42713 763.503304 738.304 766.70887 743.646609L693.559652 743.646609C693.559652 678.711652 752.439652 626.086957 825.032348 626.086957 897.647304 626.086957 956.527304 678.711652 956.527304 743.646609L881.997913 743.646609C885.181217 738.304 886.962087 732.42713 886.962087 726.26087Z" p-id="26490"></path><path d="M693.559652 745.026783a1.625 0.688 0 1 0 72.347826 0 1.625 0.688 0 1 0-72.347826 0Z" p-id="26491"></path><path d="M883.712 743.513043C883.712 743.513043 883.355826 755.44487 873.316174 760.832L824.787478 805.843478C824.787478 805.843478 794.089739 834.025739 793.577739 857.778087L793.577739 899.33913 855.974957 899.33913C855.974957 899.33913 855.173565 878.970435 855.974957 861.250783 856.242087 847.560348 928.768 788.524522 928.768 788.524522 928.768 788.524522 956.838957 766.575304 956.505043 743.513043 956.17113 720.450783 883.712 743.513043 883.712 743.513043Z" p-id="26492"></path><path d="M776.325565 979.144348a2.016 2.015 0 1 0 89.755826 0 2.016 2.015 0 1 0-89.755826 0Z" p-id="26493"></path><path d="M984.620522 590.803478 984.620522 118.160696C984.620522 74.640696 949.337043 39.379478 905.839304 39.379478L118.160696 39.379478C74.640696 39.379478 39.379478 74.640696 39.379478 118.160696L39.379478 905.839304C39.379478 949.337043 74.640696 984.620522 118.160696 984.620522L550.333217 984.620522C550.600348 997.932522 551.513043 1011.044174 553.093565 1024L118.160696 1024C52.891826 1024 0 971.108174 0 905.839304L0 118.160696C0 52.891826 52.891826 0 118.160696 0L905.839304 0C971.108174 0 1024 52.891826 1024 118.160696L1024 597.548522C1011.088696 594.654609 997.977043 592.384 984.620522 590.803478ZM692.246261 284.516174 255.933217 284.516174C240.217043 284.516174 227.483826 271.782957 227.483826 256.066783L227.483826 255.910957C227.483826 240.217043 240.217043 227.483826 255.933217 227.483826L692.246261 227.483826C707.962435 227.483826 720.695652 240.217043 720.695652 255.910957L720.695652 256.066783C720.695652 271.782957 707.962435 284.516174 692.246261 284.516174ZM227.483826 502.338783 227.483826 502.182957C227.483826 486.466783 240.217043 473.733565 255.933217 473.733565L692.246261 473.733565C707.962435 473.733565 720.695652 486.466783 720.695652 502.182957L720.695652 502.338783C720.695652 518.054957 707.962435 530.788174 692.246261 530.788174L255.933217 530.788174C240.217043 530.788174 227.483826 518.054957 227.483826 502.338783Z" p-id="26494"></path></svg>