<?xml version="1.0" standalone="no"?><!DOCTYPE svg PUBLIC "-//W3C//DTD SVG 1.1//EN" "http://www.w3.org/Graphics/SVG/1.1/DTD/svg11.dtd"><svg t="1654573578312" class="icon" viewBox="0 0 1024 1024" version="1.1" xmlns="http://www.w3.org/2000/svg" p-id="10634" xmlns:xlink="http://www.w3.org/1999/xlink" width="200" height="200"><defs><style type="text/css">@font-face { font-family: feedback-iconfont; src: url("//at.alicdn.com/t/font_1031158_u69w8yhxdu.woff2?t=1630033759944") format("woff2"), url("//at.alicdn.com/t/font_1031158_u69w8yhxdu.woff?t=1630033759944") format("woff"), url("//at.alicdn.com/t/font_1031158_u69w8yhxdu.ttf?t=1630033759944") format("truetype"); }
</style></defs><path d="M865.57142832 287v321.42857168c0 70.71428584-57.85714248 128.57142832-128.57142832 128.57142832H190.57142832v32.14285752c0 54.64285752 41.78571416 96.42857168 96.42857168 96.4285708h530.35714248l144.64285752 96.42857168V383.42857168c0-54.64285752-41.78571416-96.42857168-96.42857168-96.42857168z" fill="#FFBB96" p-id="10635"></path><path d="M206.64285752 672.71428584L62 769.14285752V158.42857168c0-54.64285752 41.78571416-96.42857168 96.42857168-96.42857168h546.4285708c54.64285752 0 96.42857168 41.78571416 96.42857168 96.42857168v417.85714248c0 54.64285752-41.78571416 96.42857168-96.42857168 96.42857168H206.64285752z" fill="#FF7A45" p-id="10636"></path><path d="M206.64285752 367.35714248m-48.21428584 0a48.21428584 48.21428584 0 1 0 96.4285708 0 48.21428584 48.21428584 0 1 0-96.4285708 0Z" fill="#FFD8BF" p-id="10637"></path><path d="M431.64285752 367.35714248m-48.21428585 0a48.21428584 48.21428584 0 1 0 96.42857081 0 48.21428584 48.21428584 0 1 0-96.42857081 0Z" fill="#FFD8BF" p-id="10638"></path><path d="M656.64285752 367.35714248m-48.21428585 0a48.21428584 48.21428584 0 1 0 96.42857081 0 48.21428584 48.21428584 0 1 0-96.42857081 0Z" fill="#FFD8BF" p-id="10639"></path></svg>